<?xml version="1.0" encoding="utf-8"?>
<!-- Generator: Adobe Illustrator 15.1.0, SVG Export Plug-In . SVG Version: 6.00 Build 0)  -->
<!DOCTYPE svg PUBLIC "-//W3C//DTD SVG 1.1//EN" "http://www.w3.org/Graphics/SVG/1.1/DTD/svg11.dtd">
<svg version="1.1" id="Layer_1" xmlns="http://www.w3.org/2000/svg" xmlns:xlink="http://www.w3.org/1999/xlink" x="0px" y="0px"
	 width="141.73px" height="42.693px" viewBox="0 0 141.73 42.693" enable-background="new 0 0 141.73 42.693" xml:space="preserve">
<g>
	<path fill="#FFFFFF" d="M92.775,40.799c-0.012,0-0.033,0.009-0.067,0.025c-0.036,0.017-0.059,0.024-0.068,0.024l-0.034,0.02
		l-0.02-0.02c-0.044-0.021-0.074-0.066-0.092-0.137c-0.019-0.068-0.065-0.091-0.146-0.068c-0.01,0.012-0.035,0.041-0.075,0.086
		c-0.039,0.046-0.064,0.068-0.077,0.068H92.11c-0.104,0-0.177-0.015-0.223-0.043c-0.046-0.027-0.086-0.06-0.118-0.093
		c-0.035-0.034-0.066-0.075-0.096-0.12c-0.027-0.046-0.07-0.085-0.13-0.119c-0.01-0.023-0.056-0.035-0.135-0.035
		c-0.081,0-0.131-0.011-0.153-0.034c-0.013-0.022-0.013-0.086,0-0.188c0.011-0.104,0.011-0.165,0-0.188l-0.036-0.051
		c-0.091-0.148-0.159-0.291-0.212-0.428c-0.052-0.137-0.077-0.285-0.077-0.444c0-0.308,0.03-0.632,0.094-0.973
		c0.062-0.343,0.141-0.661,0.231-0.958c0.022-0.012,0.04-0.023,0.05-0.034l0.054-0.052c0.045-0.114,0.094-0.257,0.144-0.428
		c0.054-0.171,0.1-0.351,0.137-0.538c0.041-0.188,0.075-0.37,0.104-0.547c0.029-0.176,0.043-0.327,0.043-0.453v-0.119
		c0-0.012-0.01-0.061-0.033-0.146c-0.022-0.085-0.035-0.134-0.035-0.146c0-0.034-0.002-0.103-0.007-0.205
		c-0.007-0.104-0.011-0.21-0.011-0.324s0.004-0.222,0.011-0.325c0.005-0.103,0.007-0.171,0.007-0.205
		c-0.021-0.021-0.04-0.06-0.05-0.111c-0.014-0.052-0.019-0.088-0.019-0.11c0-0.012-0.002-0.026-0.01-0.042
		c-0.006-0.018-0.009-0.031-0.009-0.043h0.054c0-0.011,0.006-0.022,0.016-0.034c0-0.012,0.004-0.017,0.011-0.017
		c0.005,0,0.007-0.007,0.007-0.018c-0.011-0.012-0.023-0.035-0.042-0.069c-0.019-0.033-0.025-0.057-0.025-0.068
		c-0.012-0.022-0.024-0.073-0.042-0.154c-0.019-0.079-0.038-0.125-0.062-0.136c0-0.012-0.026-0.022-0.084-0.035
		c-0.057-0.01-0.091-0.023-0.102-0.034c-0.013-0.011-0.03-0.057-0.054-0.137c-0.022-0.08-0.039-0.131-0.05-0.154
		c0-0.011-0.007-0.034-0.019-0.067c-0.012-0.034-0.019-0.058-0.019-0.069c-0.045,0.08-0.091,0.123-0.135,0.128
		c-0.045,0.005-0.089,0.009-0.129,0.009c-0.041,0-0.071,0.019-0.093,0.051c-0.024,0.034-0.035,0.109-0.035,0.223
		c-0.103,0-0.191,0.017-0.265,0.051c-0.074,0.035-0.163,0.052-0.266,0.052c-0.046,0-0.104-0.003-0.171-0.009
		c-0.068-0.006-0.138-0.018-0.206-0.035c-0.067-0.017-0.125-0.045-0.17-0.085c-0.047-0.04-0.069-0.087-0.069-0.145
		c0-0.104,0.038-0.173,0.111-0.214c0.074-0.04,0.111-0.122,0.111-0.248c0-0.08-0.009-0.151-0.027-0.214
		c-0.016-0.062-0.052-0.134-0.109-0.214l0.138-0.085c0.012-0.171,0.034-0.305,0.068-0.401c0.033-0.098,0.085-0.173,0.153-0.23
		c0.067-0.057,0.15-0.111,0.247-0.163s0.208-0.117,0.333-0.195c0.229-0.159,0.368-0.377,0.419-0.649
		c0.051-0.273,0.093-0.541,0.129-0.803c0.01-0.012,0.027-0.066,0.05-0.163s0.041-0.156,0.054-0.18l-0.019-0.033v-0.018
		c-0.013,0-0.021-0.006-0.035-0.017c-0.01,0-0.021-0.003-0.024-0.009c-0.004-0.007-0.016-0.01-0.024-0.01l-0.138,0.138v-0.019
		v-0.034c0.011-0.045,0.029-0.11,0.052-0.196c0.022-0.085,0.04-0.14,0.05-0.162c0-0.022,0.007-0.061,0.019-0.111
		s0.019-0.088,0.019-0.109c0-0.023-0.007-0.062-0.019-0.12c-0.012-0.059-0.019-0.092-0.019-0.104
		c-0.01-0.022-0.02-0.072-0.023-0.146c-0.005-0.075-0.017-0.153-0.025-0.239c-0.013-0.085-0.023-0.159-0.043-0.222
		c-0.018-0.062-0.037-0.095-0.06-0.095c-0.023,0-0.051,0.006-0.086,0.019c-0.034,0.012-0.052,0.022-0.052,0.034v-0.034v-0.019
		c0-0.021,0.009-0.072,0.025-0.152c0.018-0.08,0.025-0.125,0.025-0.138v-0.052v-0.034c0-0.022-0.009-0.06-0.025-0.11
		c-0.017-0.052-0.025-0.083-0.025-0.095c-0.013-0.022-0.028-0.04-0.052-0.051c-0.022-0.012-0.033-0.022-0.033-0.035
		c-0.148-0.079-0.234-0.187-0.258-0.323c-0.022-0.138-0.033-0.285-0.033-0.444c0-0.104,0.002-0.193,0.01-0.273
		c0.005-0.08,0.028-0.165,0.077-0.256l0.137-0.138l0.017-0.033l-0.017-0.035v-0.013c-0.014,0-0.023-0.005-0.035-0.016l-0.034-0.035
		V25.01v-0.051c0-0.013,0.009-0.034,0.027-0.068c0.016-0.035,0.028-0.057,0.042-0.069h-0.189c0-0.068,0.009-0.15,0.025-0.248
		c0.019-0.096,0.05-0.179,0.095-0.247c0.046-0.08,0.088-0.125,0.129-0.138c0.038-0.011,0.07-0.062,0.094-0.152
		c0-0.022-0.007-0.074-0.018-0.155c-0.012-0.079-0.006-0.13,0.018-0.153c0.023,0,0.052-0.005,0.087-0.017l0.102-0.034v-0.069V23.54
		c0-0.012,0.014-0.028,0.043-0.052c0.029-0.022,0.049-0.033,0.059-0.033v-0.034v-0.034c-0.01-0.023-0.026-0.071-0.05-0.146
		c-0.021-0.073-0.041-0.121-0.052-0.146v-0.033v-0.035c0.011,0,0.029-0.009,0.052-0.024c0.022-0.018,0.04-0.032,0.05-0.043
		c0.047-0.069,0.083-0.137,0.111-0.205c0.029-0.068,0.062-0.131,0.096-0.188c0.033-0.056,0.078-0.106,0.137-0.152
		c0.057-0.045,0.131-0.079,0.222-0.104c0.022,0,0.086,0.009,0.188,0.026c0.104,0.017,0.171,0.025,0.205,0.025v-0.273
		c0.046,0.058,0.103,0.094,0.17,0.11c0.068,0.018,0.131,0.025,0.188,0.025c0.057,0,0.11-0.01,0.162-0.033
		c0.052-0.022,0.111-0.035,0.18-0.035c0.067,0,0.112,0.015,0.138,0.043c0.021,0.029,0.042,0.062,0.06,0.104
		c0.018,0.039,0.029,0.079,0.043,0.119c0.011,0.04,0.046,0.07,0.104,0.094c0.021-0.021,0.048-0.079,0.074-0.171
		c0.028-0.091,0.071-0.148,0.13-0.171c0.012,0,0.027,0.006,0.052,0.018c0.021,0.012,0.032,0.023,0.032,0.033
		c0,0.024-0.011,0.052-0.032,0.085c-0.023,0.035-0.04,0.058-0.052,0.069h0.033c0.139,0,0.205-0.058,0.205-0.171
		c0-0.068-0.018-0.128-0.05-0.18c-0.035-0.051-0.053-0.11-0.053-0.18c0.057,0,0.146,0.008,0.265,0.026
		c0.121,0.017,0.207,0.043,0.266,0.076c0,0.034,0.006,0.068,0.018,0.103c0.011,0.022,0.017,0.045,0.017,0.069
		c0,0.022,0.006,0.039,0.018,0.051c0.022,0.011,0.049,0.042,0.077,0.094c0.027,0.051,0.055,0.089,0.077,0.111
		c0.021,0.045,0.065,0.077,0.127,0.094c0.063,0.017,0.096,0.042,0.096,0.077v0.052c-0.013,0-0.028,0.008-0.052,0.025
		c-0.022,0.018-0.034,0.031-0.034,0.042c-0.012,0.022-0.01,0.058,0.009,0.103c0.019,0.046,0.025,0.081,0.025,0.104
		c0.046,0,0.082,0.003,0.11,0.009c0.028,0.005,0.055-0.021,0.078-0.077v-0.257v-0.24c0-0.021-0.009-0.051-0.025-0.085
		c-0.018-0.033-0.032-0.051-0.043-0.051c-0.022-0.012-0.062-0.005-0.12,0.018c-0.058,0.023-0.092,0.033-0.103,0.033
		c-0.024,0-0.044-0.017-0.059-0.051c-0.019-0.034-0.021-0.062-0.011-0.085h0.632c0.023,0.126,0.072,0.265,0.146,0.418
		c0.074,0.154,0.174,0.229,0.299,0.229v-0.562c0-0.045,0.02-0.071,0.052-0.077c0.035-0.005,0.062-0.009,0.086-0.009
		c0.104,0,0.2,0.027,0.291,0.085v-0.223h0.153c0.011,0.068,0.027,0.125,0.051,0.172c0.022,0.045,0.038,0.091,0.044,0.136
		c0.004,0.045,0.021,0.085,0.041,0.12c0.046,0.113,0.069,0.205,0.069,0.272c0,0.023-0.003,0.083-0.008,0.18
		c-0.007,0.097-0.013,0.196-0.019,0.3c-0.006,0.103-0.021,0.196-0.044,0.282c-0.021,0.085-0.049,0.127-0.085,0.127h-0.051
		c0.011,0,0-0.018-0.034-0.052l-0.033-0.033h-0.034h-0.052c-0.013,0-0.034,0.008-0.068,0.024c-0.033,0.018-0.058,0.037-0.068,0.061
		c0.012-0.023,0.026-0.061,0.042-0.11c0.019-0.052,0.026-0.088,0.026-0.111c0-0.034-0.021-0.065-0.068-0.094
		c-0.045-0.028-0.097-0.052-0.153-0.069c-0.058-0.017-0.112-0.03-0.17-0.042c-0.058-0.011-0.098-0.018-0.12-0.018
		c-0.046,0-0.086,0.013-0.119,0.035c-0.034,0.021-0.073,0.035-0.118,0.035c-0.264,0-0.505-0.05-0.729-0.146
		c-0.223-0.097-0.459-0.145-0.709-0.145c-0.057,0-0.146,0-0.273,0c-0.124,0-0.21,0.028-0.255,0.085
		c-0.138,0.125-0.224,0.281-0.259,0.47c-0.031,0.188-0.045,0.362-0.031,0.521c-0.014,0-0.021,0.004-0.026,0.009
		c-0.007,0.006-0.015,0.008-0.027,0.008l-0.031-0.018c-0.014,0-0.023-0.02-0.035-0.06s-0.02-0.065-0.02-0.077
		c-0.044,0.011-0.07,0.045-0.083,0.104c-0.011,0.057-0.021,0.119-0.026,0.188c-0.005,0.068-0.021,0.136-0.042,0.205
		c-0.022,0.069-0.068,0.12-0.137,0.154c-0.046,0.182-0.073,0.339-0.086,0.47c-0.011,0.131-0.018,0.276-0.018,0.436v0.172
		c0,0.012,0.009,0.045,0.026,0.102c0.017,0.057,0.032,0.117,0.051,0.18c0.018,0.062,0.033,0.125,0.051,0.188
		c0.018,0.062,0.025,0.1,0.025,0.112c0,0.032,0.006,0.091,0.018,0.17c0.011,0.079,0.023,0.168,0.036,0.265
		c0.01,0.097,0.019,0.186,0.023,0.265c0.006,0.08,0.009,0.137,0.009,0.171c0.034,0.058,0.088,0.103,0.164,0.138
		c0.071,0.034,0.133,0.085,0.178,0.152c-0.091,0.023-0.164,0.066-0.222,0.128c-0.058,0.063-0.086,0.141-0.086,0.231
		c0,0.125,0.021,0.245,0.061,0.359c0.039,0.112,0.058,0.232,0.058,0.357c0,0.046-0.002,0.08-0.007,0.104
		c-0.005,0.022-0.037,0.057-0.092,0.103c0.032-0.035,0.066-0.035,0.099,0c0,0.011,0.009,0.031,0.02,0.061
		c0.012,0.027,0.021,0.054,0.035,0.075c0,0.023,0.01,0.063,0.031,0.12c0.023,0.059,0.041,0.093,0.055,0.104
		c0.021,0.034,0.072,0.049,0.152,0.042c0.079-0.005,0.118,0.037,0.118,0.128c-0.056,0-0.134,0.009-0.229,0.024
		c-0.1,0.019-0.157,0.072-0.184,0.163c-0.01,0.022-0.012,0.071-0.007,0.146s0.007,0.123,0.007,0.145
		c-0.021,0.092-0.055,0.166-0.099,0.223c-0.048,0.058-0.09,0.111-0.13,0.163c-0.04,0.051-0.077,0.104-0.111,0.161
		c-0.034,0.058-0.052,0.138-0.052,0.239c-0.01-0.067-0.048-0.09-0.11-0.067c-0.062,0.021-0.116,0.033-0.163,0.033v0.104
		c0,0.022,0.006,0.064,0.019,0.128c0.011,0.062,0.023,0.131,0.042,0.205c0.018,0.075,0.035,0.143,0.053,0.206
		c0.017,0.062,0.025,0.099,0.025,0.11c0,0.023-0.01,0.062-0.025,0.119c-0.018,0.059-0.026,0.093-0.026,0.104v0.034
		c0.013,0,0.022,0.009,0.034,0.025c0.011,0.018,0.019,0.021,0.019,0.009c0.01-0.022,0.027-0.057,0.051-0.103
		c0.021-0.045,0.034-0.08,0.034-0.103c0.021,0.045,0.062,0.07,0.118,0.076c0.059,0.005,0.099,0.01,0.121,0.01
		c0,0.091,0.021,0.136,0.061,0.136c0.039,0,0.088,0.045,0.143,0.137c0,0.011,0.009,0.057,0.02,0.136
		c0.012,0.08,0.021,0.126,0.035,0.138c0.056,0.16,0.145,0.305,0.266,0.436c0.119,0.131,0.178,0.288,0.178,0.471
		c0,0.012-0.003,0.028-0.008,0.051c-0.006,0.023-0.009,0.04-0.009,0.052l-0.051-0.068c-0.014,0.012-0.028,0.034-0.053,0.068
		c-0.021,0.034-0.034,0.062-0.034,0.085c0,0.022,0.013,0.091,0.034,0.205c0.023,0.115,0.039,0.183,0.053,0.205v0.035
		c0,0.079-0.018,0.144-0.044,0.194c-0.027,0.052-0.043,0.124-0.043,0.214c0,0.172,0.054,0.306,0.163,0.401
		c0.107,0.098,0.174,0.226,0.195,0.385c-0.021,0.013-0.068,0.037-0.145,0.077c-0.074,0.04-0.117,0.061-0.128,0.061
		c-0.069,0.057-0.099,0.11-0.087,0.162c0.013,0.052,0.013,0.122,0,0.214c0,0.022-0.003,0.067-0.007,0.136
		c-0.007,0.069-0.014,0.14-0.018,0.214c-0.008,0.075-0.014,0.146-0.019,0.214c-0.007,0.068-0.009,0.119-0.009,0.153
		c-0.126,0.022-0.188,0.097-0.188,0.222s0.013,0.222,0.036,0.29c-0.036-0.057-0.063-0.084-0.086-0.084l-0.035-0.018
		c-0.058,0-0.093,0.028-0.11,0.085c-0.019,0.058-0.038,0.108-0.061,0.153l-0.086-0.086l-0.153,0.138v0.529
		c0-0.012-0.021-0.027-0.061-0.052c-0.038-0.021-0.065-0.04-0.075-0.051l-0.053,0.034v0.479c0.094,0,0.141,0.006,0.146,0.018
		c0.006,0.012,0.056-0.012,0.146-0.067c-0.012,0.023-0.029,0.059-0.052,0.11c-0.021,0.051-0.039,0.076-0.052,0.076
		c0,0.013-0.007,0.037-0.025,0.077c-0.018,0.041-0.024,0.065-0.024,0.077c-0.013,0.022-0.016,0.071-0.01,0.146
		c0.008,0.074,0.01,0.123,0.01,0.146c-0.013,0.012-0.037,0.025-0.078,0.043c-0.038,0.019-0.06,0.032-0.06,0.042l-0.017,0.019
		c0,0.022,0.025,0.048,0.075,0.075c0.054,0.029,0.104,0.069,0.154,0.121c0.052,0.051,0.096,0.125,0.128,0.222
		c0.035,0.097,0.035,0.23,0,0.401c0.148,0.057,0.245,0.138,0.292,0.239c0.056-0.023,0.089-0.048,0.094-0.077
		s0.009-0.054,0.009-0.077c0-0.067-0.029-0.107-0.086-0.12c-0.057-0.011-0.114-0.044-0.169-0.102
		c0.021-0.046,0.071-0.069,0.152-0.069c0.103,0,0.193,0.038,0.271,0.112c0.08,0.073,0.161,0.134,0.241,0.179
		c-0.137,0.034-0.202,0.072-0.198,0.11c0.007,0.041,0.01,0.124,0.01,0.249h0.069c0-0.069-0.007-0.12-0.018-0.154
		c-0.014-0.034,0.039-0.051,0.151-0.051h0.053c0.012,0,0.034,0.006,0.067,0.017c0.034,0.012,0.057,0.023,0.069,0.034
		c0.021,0.012,0.086,0.025,0.188,0.043c0.103,0.019,0.159,0.036,0.171,0.06c0.012,0,0.034,0.02,0.068,0.061
		c0.033,0.041,0.057,0.065,0.069,0.077h0.103c0,0.011,0.028,0.034,0.084,0.068c0.058,0.034,0.091,0.062,0.103,0.085
		c0.022,0,0.053,0.009,0.086,0.026c0.036,0.017,0.058,0.024,0.068,0.024h0.804c0,0.171-0.02,0.312-0.062,0.428
		c-0.038,0.114-0.121,0.233-0.247,0.359c-0.058-0.046-0.125-0.069-0.204-0.069c-0.081,0-0.132,0.023-0.154,0.069
		c0.022,0.057,0.062,0.088,0.118,0.093c0.061,0.006,0.104,0.009,0.139,0.009c0,0.034-0.019,0.088-0.051,0.163
		c-0.034,0.073-0.074,0.11-0.12,0.11c-0.013,0-0.05-0.022-0.11-0.068c-0.063-0.045-0.1-0.074-0.111-0.086h-0.052H94.23
		c-0.012,0.012-0.025,0.046-0.042,0.104c-0.019,0.057-0.031,0.091-0.044,0.102c-0.012,0.023-0.051,0.044-0.118,0.062
		c-0.067,0.017-0.146,0.029-0.23,0.043c-0.086,0.01-0.166,0.022-0.238,0.033c-0.074,0.013-0.123,0.018-0.146,0.018h-0.05
		c-0.092-0.035-0.182-0.077-0.266-0.128c-0.085-0.052-0.175-0.077-0.265-0.077H92.775z M90.349,32.734
		c0-0.021-0.016-0.034-0.044-0.034c-0.027,0-0.037,0.012-0.024,0.034C90.302,32.802,90.326,32.802,90.349,32.734z M90.707,25.865
		c0,0.058,0.014,0.127,0.043,0.214c0.029,0.085,0.088,0.128,0.18,0.128v-0.359l-0.223-0.085V25.865z M90.844,25.591
		c0,0.022,0.019,0.049,0.051,0.077c0.034,0.027,0.062,0.042,0.086,0.042v-0.255c-0.022,0-0.052,0.012-0.086,0.033
		C90.862,25.512,90.844,25.546,90.844,25.591z M91.117,24.327l0.102-0.086h-0.102V24.327z M91.117,26.258
		c0.057-0.022,0.094-0.068,0.111-0.136c0.018-0.069,0.025-0.115,0.025-0.138c0-0.021-0.003-0.062-0.009-0.119
		c-0.008-0.057-0.015-0.091-0.027-0.103l-0.031-0.018h-0.019c-0.021,0-0.041,0.006-0.052,0.018L91.117,26.258L91.117,26.258z
		 M91.219,25.54c-0.031-0.012-0.05,0-0.05,0.033c0,0.035,0.019,0.046,0.05,0.035C91.242,25.585,91.242,25.563,91.219,25.54z
		 M91.255,25.044c-0.013-0.012-0.019-0.002-0.019,0.025c0,0.028,0.006,0.037,0.019,0.025c0.033,0,0.05-0.007,0.05-0.025
		C91.304,25.053,91.288,25.044,91.255,25.044z M91.595,23.319c-0.067,0-0.127,0.023-0.18,0.068c-0.051,0.045-0.076,0.103-0.076,0.17
		c0.023,0,0.082-0.003,0.18-0.008c0.097-0.005,0.163-0.009,0.195-0.009c0.013,0,0.025-0.012,0.043-0.034
		c0.02-0.022,0.025-0.04,0.025-0.051c0-0.012-0.022-0.041-0.068-0.085c-0.021-0.023-0.045-0.04-0.067-0.052H91.595z M91.408,23.729
		c-0.022,0-0.035,0.026-0.035,0.077c0,0.052,0.013,0.076,0.035,0.076c0.057,0,0.086-0.024,0.086-0.076
		C91.494,23.755,91.465,23.729,91.408,23.729z M91.543,22.926c0,0.045,0.012,0.088,0.027,0.128c0.017,0.04,0.048,0.06,0.095,0.06
		h0.032c0.013,0,0.018-0.005,0.018-0.018l0.035-0.033l0.033-0.035c-0.022-0.057-0.057-0.088-0.103-0.094
		C91.635,22.928,91.589,22.926,91.543,22.926z M91.647,28.701h0.067l-0.067-0.052V28.701z M91.715,30.649
		c-0.032,0-0.05,0.023-0.05,0.068s0.017,0.068,0.05,0.068c0.035,0,0.054-0.023,0.054-0.068S91.75,30.649,91.715,30.649z
		 M91.715,38.491c-0.032,0-0.05,0.023-0.05,0.07c0,0.045,0.017,0.068,0.05,0.068c0.035,0,0.054-0.023,0.054-0.068
		C91.768,38.515,91.75,38.491,91.715,38.491z M91.783,32.512c-0.068,0.057-0.103,0.108-0.103,0.154c0.068,0,0.124-0.023,0.171-0.068
		L91.783,32.512z M91.783,33.297c-0.033,0-0.051,0.025-0.051,0.077s0.018,0.078,0.051,0.078c0.035,0,0.053-0.026,0.053-0.078
		C91.836,33.323,91.818,33.297,91.783,33.297z M91.783,22.618c0.081,0,0.126-0.034,0.137-0.104c0-0.034-0.021-0.051-0.067-0.051
		h-0.017c-0.013,0-0.022-0.006-0.035-0.019l-0.018,0.019V22.618z M91.783,39.295h0.137v-0.103h-0.137V39.295z M91.852,33.161
		c0,0.011,0.013,0.04,0.034,0.085c0.012,0.021,0.022,0.04,0.033,0.051v0.017h0.034c0.046,0,0.078-0.017,0.095-0.051
		s0.026-0.069,0.026-0.103L91.852,33.161L91.852,33.161z M91.92,37.929c-0.033,0-0.051,0.023-0.051,0.068s0.018,0.066,0.051,0.066
		c0.047,0,0.069-0.021,0.069-0.066S91.967,37.929,91.92,37.929z M92.006,27.847c-0.046,0-0.067,0.022-0.067,0.068
		s0.021,0.068,0.067,0.068c0.022,0,0.034-0.022,0.034-0.068C92.04,27.87,92.028,27.847,92.006,27.847z M92.006,26.446
		c0,0.059,0.018,0.088,0.053,0.095c0.033,0.005,0.072,0.009,0.119,0.009h0.119c-0.059-0.068-0.101-0.131-0.129-0.188
		c-0.026-0.057-0.042-0.125-0.042-0.206c-0.012,0-0.021,0.006-0.034,0.019c-0.011,0.012-0.023,0.017-0.033,0.017
		c0,0.012-0.01,0.042-0.025,0.094c-0.018,0.052-0.026,0.095-0.026,0.128L92.006,26.446L92.006,26.446z M92.193,27.915v-0.068h-0.051
		L92.193,27.915z M92.143,35.229c0.021,0.023,0.049,0.042,0.076,0.061c0.028,0.018,0.055,0.031,0.077,0.043
		c0,0.011,0.005,0.018,0.019,0.018h0.031v-0.188c-0.01,0-0.017,0.003-0.017,0.009c0,0.005-0.006,0.008-0.016,0.008h-0.019
		c-0.022,0.012-0.049,0.024-0.077,0.035C92.192,35.223,92.165,35.229,92.143,35.229z M92.193,38.562
		c-0.023,0-0.033,0.022-0.033,0.068c0,0.045,0.01,0.066,0.033,0.066c0.058,0,0.086-0.021,0.086-0.066
		C92.279,38.584,92.251,38.562,92.193,38.562z M92.346,23.028c-0.01,0.035-0.035,0.108-0.075,0.223
		c-0.039,0.113-0.064,0.182-0.077,0.205v0.102c0.066,0,0.109-0.019,0.128-0.06c0.018-0.04,0.031-0.085,0.043-0.138
		c0.011-0.051,0.022-0.099,0.036-0.145c0.01-0.045,0.045-0.068,0.102-0.068c0-0.08-0.041-0.12-0.119-0.12L92.346,23.028
		L92.346,23.028z M92.297,27.335c-0.059,0-0.086,0.025-0.086,0.077c0,0.051,0.027,0.076,0.086,0.076
		c0.022,0,0.033-0.024,0.033-0.076C92.33,27.36,92.319,27.335,92.297,27.335z M92.26,31.862c0,0.069,0.029,0.12,0.086,0.154
		c0.069-0.034,0.104-0.085,0.104-0.154H92.26z M92.279,34.102c0,0.079,0.006,0.199,0.018,0.358c0.012,0.16,0.057,0.256,0.137,0.291
		c0.013-0.012,0.021-0.025,0.025-0.042c0.005-0.018,0.014-0.031,0.027-0.043v-0.018v-0.052c-0.015-0.034-0.02-0.079-0.02-0.137
		s-0.007-0.113-0.018-0.171c-0.012-0.058-0.019-0.12-0.019-0.188H92.279L92.279,34.102z M92.297,28.65
		c0,0.034,0.012,0.069,0.033,0.104c0.022,0.034,0.062,0.051,0.12,0.051c0-0.057-0.008-0.1-0.025-0.128
		c-0.017-0.028-0.042-0.065-0.078-0.111C92.315,28.565,92.297,28.593,92.297,28.65z M92.346,22.465h0.087v-0.086h-0.087V22.465z
		 M92.346,29.505l0.087-0.086l-0.087-0.069V29.505z M92.416,40.32c0,0.034,0.009,0.074,0.026,0.119
		c0.017,0.046,0.049,0.069,0.094,0.069h0.049C92.552,40.384,92.496,40.32,92.416,40.32z M92.433,33.383h0.054v-0.086h-0.054V33.383z
		 M92.585,32.306c-0.032-0.011-0.049-0.002-0.049,0.026s0.017,0.043,0.049,0.043c0.015-0.012,0.02-0.025,0.02-0.043
		S92.599,32.306,92.585,32.306z M92.585,33.674c0,0.022,0.018,0.057,0.044,0.103c0.028,0.045,0.061,0.08,0.097,0.103l0.05-0.273
		h-0.019c-0.01,0-0.021-0.006-0.031-0.017c-0.023,0-0.055,0.003-0.087,0.009C92.604,33.603,92.585,33.628,92.585,33.674z
		 M92.585,34.955h0.054v-0.068h-0.054V34.955z M92.638,22.413c0,0.091,0.051,0.137,0.153,0.137c0.104,0,0.177,0,0.223,0v-0.154
		h-0.068c-0.021,0-0.045-0.005-0.067-0.017c-0.022-0.011-0.051-0.025-0.086-0.042c-0.035-0.019-0.058-0.026-0.066-0.026
		c-0.014,0-0.026,0.009-0.044,0.026c-0.018,0.017-0.032,0.031-0.043,0.042L92.638,22.413L92.638,22.413z M92.638,34.102
		c0.022,0.079,0.068,0.139,0.137,0.179c0.067,0.04,0.104,0.101,0.104,0.18h0.273c0-0.104-0.059-0.188-0.172-0.255
		c-0.114-0.069-0.217-0.104-0.31-0.104H92.638z M92.638,39.295h0.087v-0.103L92.638,39.295z M92.878,32.375
		c-0.058,0-0.086,0.022-0.086,0.067s0.028,0.068,0.086,0.068c0.022,0,0.032-0.023,0.032-0.068S92.9,32.375,92.878,32.375z
		 M93.357,40.509l0.067-0.085h-0.067V40.509z M93.425,40.799h0.084v-0.086h-0.084V40.799z M93.663,39.774
		c-0.034-0.012-0.05-0.004-0.05,0.024c0,0.029,0.016,0.044,0.05,0.044c0.023,0,0.035-0.009,0.035-0.026
		C93.698,39.799,93.687,39.785,93.663,39.774z M93.715,22.516c0,0.011,0.012,0.028,0.034,0.051c0.022,0.024,0.04,0.035,0.052,0.035
		h0.017c0.059,0,0.095-0.025,0.11-0.077c0.02-0.051,0.027-0.1,0.027-0.146V22.31L93.715,22.516z M93.715,40.713h0.086V40.56h-0.086
		V40.713z M94.227,39.928c-0.057,0.021-0.089,0.057-0.094,0.102c-0.007,0.047-0.01,0.081-0.01,0.104h0.188
		c0-0.022-0.002-0.058-0.007-0.104C94.298,39.984,94.273,39.949,94.227,39.928z M94.381,39.843c0,0.112,0.045,0.185,0.138,0.214
		c0.093,0.027,0.183,0.042,0.272,0.042v-0.154c-0.091,0-0.151-0.017-0.179-0.051C94.584,39.859,94.506,39.843,94.381,39.843z
		 M94.877,22.875c-0.046,0-0.067,0.024-0.067,0.076s0.021,0.077,0.067,0.077c0.022,0,0.034-0.024,0.034-0.077
		C94.911,22.9,94.9,22.875,94.877,22.875z M94.927,22.96c-0.022,0-0.032,0.022-0.032,0.067s0.01,0.068,0.032,0.068
		c0.045,0,0.069-0.022,0.069-0.068S94.972,22.96,94.927,22.96z M95.012,39.843c-0.047,0-0.067,0.021-0.067,0.067
		c0,0.045,0.021,0.067,0.067,0.067c0.034,0,0.053-0.022,0.053-0.067C95.065,39.865,95.047,39.843,95.012,39.843z M95.593,22.807
		c0,0.033,0.021,0.06,0.062,0.077c0.039,0.017,0.064,0.026,0.076,0.026v-0.173c0-0.032-0.003-0.079-0.01-0.136
		c-0.004-0.058-0.013-0.114-0.023-0.172l-0.035-0.205h-0.069L95.593,22.807L95.593,22.807z M95.953,22.669h0.069v-0.067h-0.069
		V22.669z"/>
	<path fill="#FFFFFF" d="M102.702,37.434c0-0.035-0.013-0.094-0.041-0.18c-0.031-0.085-0.051-0.146-0.061-0.18
		c-0.013-0.022-0.037-0.065-0.078-0.128c-0.04-0.062-0.07-0.104-0.094-0.128c0,0.012-0.013,0.028-0.034,0.052
		c-0.023,0.021-0.041,0.033-0.052,0.033c-0.013,0.012-0.04,0.031-0.085,0.061c-0.046,0.027-0.073,0.042-0.086,0.042
		c-0.021,0-0.055,0.022-0.094,0.068c-0.04,0.046-0.072,0.073-0.096,0.086l-0.17-0.154c-0.012,0.012-0.036,0.04-0.075,0.086
		c-0.042,0.045-0.072,0.068-0.096,0.068l-0.033,0.018l-0.053-0.018c-0.033-0.013-0.095-0.04-0.18-0.086
		c-0.087-0.046-0.138-0.068-0.161-0.068c-0.012,0-0.026-0.028-0.044-0.085c-0.017-0.057-0.031-0.091-0.042-0.103
		c-0.035-0.057-0.067-0.085-0.103-0.085c-0.023,0.023-0.046,0.04-0.069,0.052c-0.012,0.012-0.028,0.018-0.05,0.018
		c-0.013,0-0.023,0.006-0.035,0.017c0,0.012-0.006,0.018-0.018,0.018h-0.034h-0.033c-0.013,0-0.019-0.005-0.019-0.018
		c-0.011-0.022-0.048-0.07-0.11-0.146c-0.062-0.074-0.106-0.117-0.128-0.128c-0.01,0-0.04,0.017-0.086,0.051
		c-0.045,0.035-0.072,0.052-0.086,0.052h-0.101h-0.065c-0.035,0-0.099-0.015-0.188-0.043c-0.092-0.027-0.148-0.048-0.172-0.06
		c-0.021-0.013-0.067-0.037-0.137-0.077c-0.068-0.041-0.109-0.065-0.12-0.077c-0.011-0.011-0.021-0.037-0.025-0.078
		c-0.005-0.039-0.012-0.084-0.017-0.136c-0.006-0.051-0.013-0.1-0.019-0.146c-0.006-0.045-0.008-0.073-0.008-0.085
		c-0.022-0.034-0.081-0.107-0.171-0.223c-0.091-0.113-0.152-0.182-0.188-0.204c-0.011,0.011-0.032,0.025-0.062,0.042
		c-0.027,0.019-0.042,0.031-0.042,0.043c0,0.011-0.021,0.051-0.067,0.119c-0.047,0.068-0.075,0.115-0.086,0.137
		c0,0.013-0.008,0.019-0.018,0.019h-0.035h-0.033c-0.011,0-0.017-0.006-0.017-0.019c-0.012-0.011-0.053-0.04-0.121-0.085
		c-0.066-0.045-0.107-0.074-0.118-0.086c-0.022,0-0.067-0.011-0.137-0.034c-0.069-0.022-0.109-0.04-0.119-0.051
		c-0.014-0.012-0.033-0.072-0.061-0.18c-0.027-0.108-0.043-0.191-0.043-0.249c-0.013-0.022-0.02-0.045-0.02-0.068v-0.102
		c0-0.023,0.005-0.058,0.01-0.104c0.008-0.045,0.01-0.073,0.01-0.086c0-0.011,0.016-0.027,0.043-0.051
		c0.026-0.021,0.047-0.034,0.061-0.034h-0.188l-0.171-0.597h-0.104c0.012,0.034,0.009,0.093-0.009,0.179
		c-0.019,0.085-0.036,0.141-0.06,0.163c-0.011,0.011-0.031,0.021-0.06,0.025c-0.029,0.006-0.056,0.008-0.078,0.008
		c-0.011,0-0.03-0.002-0.06-0.008c-0.028-0.006-0.049-0.016-0.061-0.025c-0.011-0.046-0.027-0.146-0.053-0.299
		c-0.021-0.154-0.039-0.253-0.049-0.299c-0.013-0.034-0.025-0.098-0.043-0.188c-0.02-0.092-0.033-0.143-0.043-0.154
		c0-0.023-0.022-0.042-0.068-0.061c-0.046-0.017-0.079-0.024-0.104-0.024v-1.129c-0.021-0.01-0.055-0.04-0.093-0.084
		c-0.041-0.046-0.066-0.079-0.077-0.103c0-0.011-0.004-0.04-0.009-0.085c-0.006-0.045-0.01-0.08-0.01-0.103
		c0-0.034,0.004-0.079,0.01-0.137c0.005-0.057,0.009-0.091,0.009-0.103c0-0.022,0.015-0.082,0.042-0.18
		c0.027-0.097,0.048-0.146,0.062-0.146c0-0.022,0.008-0.099,0.023-0.23c0.018-0.131,0.031-0.208,0.043-0.23
		c0-0.011,0.007-0.022,0.019-0.034c0.01-0.012,0.017-0.02,0.017-0.026c0-0.005,0.007-0.014,0.018-0.024l0.034-0.069
		c0.012-0.021,0.027-0.082,0.051-0.179c0.021-0.097,0.035-0.157,0.035-0.18c0-0.012,0.005-0.042,0.018-0.094
		c0.01-0.051,0.02-0.105,0.025-0.163c0.006-0.057,0.015-0.11,0.024-0.161c0.012-0.052,0.019-0.082,0.019-0.095
		c0.01-0.034,0.026-0.096,0.049-0.188c0.024-0.091,0.042-0.148,0.053-0.171c0.012,0,0.026-0.021,0.043-0.061
		c0.018-0.04,0.026-0.071,0.026-0.093c0.011-0.023,0.043-0.069,0.094-0.137c0.051-0.068,0.083-0.114,0.094-0.138
		c0-0.011,0.013-0.051,0.033-0.118c0.023-0.068,0.034-0.114,0.034-0.138c0.023-0.011,0.039-0.021,0.053-0.035l0.051-0.051
		c0-0.011,0.013-0.04,0.034-0.085c0.022-0.045,0.04-0.073,0.051-0.086c0.014-0.045,0.065-0.122,0.163-0.229
		c0.097-0.108,0.156-0.174,0.18-0.196l0.034,0.034c0.012,0.011,0.027,0.021,0.052,0.032c0.021,0.013,0.039,0.019,0.049,0.019h0.054
		h0.033c0.012,0,0.022-0.005,0.035-0.019c0.022-0.011,0.053-0.051,0.094-0.118c0.04-0.068,0.065-0.114,0.077-0.137
		c0.01-0.012,0.044-0.025,0.093-0.042c0.054-0.018,0.083-0.031,0.096-0.043c0.012-0.011,0.035-0.042,0.076-0.094
		c0.04-0.051,0.07-0.083,0.095-0.095c0.012,0,0.039,0.003,0.085,0.009c0.045,0.007,0.075,0.003,0.085-0.009
		c0.022,0,0.043-0.036,0.061-0.11c0.019-0.074,0.025-0.123,0.025-0.146c0.059,0.012,0.148-0.002,0.273-0.042s0.21-0.083,0.256-0.128
		c0.023-0.022,0.047-0.089,0.069-0.197c0.021-0.108,0.027-0.179,0.017-0.213l0.034-0.018l0.052,0.018
		c0.021,0.011,0.054,0.037,0.095,0.077c0.039,0.04,0.058,0.064,0.058,0.075v0.188l0.104,0.068v0.103v0.068
		c-0.01,0.022-0.027,0.046-0.05,0.068s-0.04,0.033-0.054,0.033c-0.011,0.012-0.045,0.009-0.102-0.009s-0.097-0.024-0.12-0.024
		c0,0.033-0.005,0.114-0.017,0.239c-0.013,0.125-0.013,0.199,0,0.222c0,0.022,0.009,0.058,0.025,0.104
		c0.018,0.045,0.036,0.074,0.061,0.085c0.012,0,0.024-0.011,0.042-0.035c0.018-0.022,0.032-0.045,0.044-0.068
		c0.011-0.021,0.036-0.064,0.076-0.127c0.041-0.062,0.069-0.104,0.093-0.129c-0.022,0.035-0.021,0.098,0.011,0.188
		c0.027,0.091,0.053,0.147,0.075,0.171c0.021,0.011,0.065,0.031,0.13,0.06c0.061,0.029,0.104,0.042,0.127,0.042v0.496l-0.104,0.085
		c-0.011,0-0.023-0.011-0.041-0.035c-0.019-0.022-0.026-0.039-0.026-0.051c-0.01-0.022-0.027-0.068-0.051-0.136
		c-0.022-0.068-0.035-0.114-0.035-0.137c-0.01-0.012-0.025-0.023-0.043-0.034c-0.017-0.012-0.029-0.023-0.043-0.035
		c-0.01,0-0.021,0.003-0.024,0.008c-0.006,0.006-0.015,0.009-0.024,0.009h-0.035c0,0.012-0.002,0.034-0.008,0.069
		c-0.005,0.034-0.011,0.062-0.011,0.084c0,0.023,0.019,0.066,0.054,0.129c0.033,0.063,0.05,0.105,0.05,0.128
		c-0.01,0.013-0.022,0.019-0.032,0.019c-0.013,0-0.028,0.005-0.053,0.017c-0.022,0.011-0.05,0.023-0.084,0.034
		c-0.024,0.022-0.044,0.071-0.062,0.145c-0.017,0.074-0.024,0.117-0.024,0.128c-0.023,0.022-0.056,0.08-0.096,0.171
		c-0.04,0.092-0.065,0.147-0.076,0.171l-0.103,0.102c-0.021,0.012-0.058,0.009-0.104-0.009c-0.045-0.018-0.078-0.024-0.103-0.024V30
		h-0.052c-0.046,0-0.067-0.005-0.067-0.018c-0.022-0.011-0.07-0.04-0.146-0.085c-0.073-0.045-0.115-0.073-0.128-0.085
		c-0.012,0-0.019,0.003-0.019,0.009c0,0.007-0.005,0.01-0.017,0.01h-0.033c0,0.012-0.006,0.022-0.018,0.033
		c-0.011,0.012-0.011,0.022,0,0.034c0.012,0.023,0.037,0.077,0.076,0.163c0.042,0.085,0.07,0.146,0.094,0.179
		c0,0.023-0.01,0.043-0.033,0.061s-0.039,0.025-0.052,0.025c-0.012,0-0.05-0.012-0.119-0.034c-0.068-0.022-0.114-0.04-0.137-0.053
		c-0.013,0-0.028,0.004-0.052,0.01c-0.023,0.005-0.042,0.009-0.052,0.009c0,0.012,0.004,0.022,0.008,0.034
		c0.006,0.011,0.01,0.021,0.01,0.034c-0.012,0.023-0.03,0.068-0.059,0.137c-0.032,0.068-0.044,0.115-0.044,0.137v0.034v0.034
		c0,0.012,0.017,0.028,0.05,0.052c0.035,0.023,0.053,0.04,0.053,0.051v0.12v0.136c-0.012,0.023-0.03,0.095-0.059,0.214
		c-0.032,0.12-0.044,0.19-0.044,0.214v0.358c0,0.012-0.012,0.051-0.035,0.12c-0.021,0.068-0.033,0.114-0.033,0.136
		c-0.012,0.024-0.029,0.112-0.053,0.266c-0.022,0.152-0.039,0.265-0.05,0.333v0.051v0.034l0.358-0.153l0.067,0.153l-0.065,0.033
		c-0.013,0.012-0.021,0.017-0.026,0.017s-0.014,0.006-0.024,0.018s-0.023,0.017-0.034,0.017c-0.012,0-0.03,0.009-0.059,0.025
		c-0.032,0.018-0.044,0.037-0.044,0.061v0.034c0,0.012,0.002,0.022,0.008,0.034c0.004,0.012,0.01,0.023,0.01,0.034h0.188
		c-0.011,0.013-0.017,0.022-0.017,0.034v0.034c-0.013,0.012-0.028,0.041-0.052,0.085c-0.023,0.046-0.034,0.08-0.034,0.103
		c-0.012,0-0.018,0.007-0.018,0.018v0.035l0.018,0.017c0.011,0.011,0.04,0.029,0.086,0.051c0.046,0.023,0.067,0.04,0.067,0.052
		c0,0.011-0.012,0.037-0.034,0.075c-0.021,0.041-0.033,0.072-0.033,0.095v0.034v0.052c0,0.012,0.012,0.027,0.033,0.051
		c0.022,0.022,0.034,0.041,0.034,0.051c0-0.021,0.015-0.045,0.042-0.068c0.028-0.022,0.051-0.034,0.062-0.034h0.018
		c0.011,0,0.019-0.002,0.019-0.01c0-0.005,0.004-0.007,0.016-0.007s0.023,0.005,0.034,0.017c0.013,0.012,0.025,0.038,0.043,0.076
		c0.018,0.041,0.032,0.071,0.042,0.095c0,0.012,0.009,0.028,0.026,0.051c0.017,0.023,0.036,0.034,0.06,0.034
		c0.012,0,0.038,0.012,0.078,0.035c0.038,0.021,0.07,0.045,0.093,0.067c0.011,0,0.041,0.035,0.086,0.104
		c0.045,0.067,0.079,0.113,0.104,0.137c0,0.012,0.007,0.041,0.023,0.085c0.019,0.046,0.03,0.075,0.043,0.086
		c0,0.023,0.01,0.042,0.035,0.061c0.021,0.017,0.045,0.025,0.066,0.025c0-0.012,0.009-0.04,0.026-0.085
		c0.018-0.046,0.036-0.075,0.06-0.086h0.034h0.052l0.086,0.086c0.021,0.023,0.045,0.051,0.065,0.085v0.256
		c0,0.023,0.014,0.042,0.035,0.061c0.022,0.017,0.045,0.025,0.067,0.025c0-0.021,0.014-0.052,0.036-0.086
		c0.021-0.033,0.04-0.062,0.05-0.085h0.053h0.033c0.021,0.023,0.104,0.071,0.249,0.146c0.141,0.074,0.224,0.117,0.247,0.128
		c0.021,0.011,0.066,0.024,0.137,0.042c0.068,0.017,0.113,0.024,0.137,0.024c0.012,0,0.031,0.003,0.061,0.01
		c0.028,0.006,0.055,0.009,0.077,0.009h0.085c0.012,0,0.022-0.006,0.034-0.019c0.021,0,0.069-0.008,0.137-0.024
		c0.068-0.018,0.107-0.032,0.119-0.042h0.17h0.104c0.021,0.011,0.065,0.054,0.127,0.128c0.063,0.074,0.106,0.117,0.129,0.127
		l0.052,0.017c0.012,0,0.021-0.005,0.035-0.017c0.021-0.011,0.067-0.039,0.136-0.085c0.067-0.045,0.114-0.079,0.137-0.103
		c0.023-0.011,0.066-0.024,0.127-0.042c0.064-0.018,0.106-0.024,0.13-0.024c0.013,0,0.052,0.011,0.12,0.034
		c0.067,0.022,0.108,0.033,0.118,0.033c0.021,0.013,0.084,0.016,0.18,0.01c0.098-0.006,0.157-0.01,0.181-0.01
		c0.021,0.013,0.054,0.047,0.094,0.103c0.04,0.057,0.064,0.085,0.079,0.085c0.021,0.024,0.064,0.041,0.127,0.052
		c0.062,0.011,0.104,0.018,0.127,0.018h0.102h0.087c0.035-0.012,0.062-0.022,0.085-0.034c0.045-0.023,0.075-0.035,0.086-0.035h0.138
		h0.119c0.022,0.012,0.051,0.043,0.086,0.095c0.033,0.051,0.062,0.077,0.085,0.077c0.034,0.022,0.101,0.021,0.196-0.009
		c0.097-0.028,0.156-0.043,0.18-0.043c0-0.033-0.004-0.084-0.019-0.153c-0.011-0.067-0.011-0.12,0-0.154
		c0-0.011,0.007-0.021,0.019-0.033c0.014-0.012,0.02-0.018,0.025-0.018c0.007,0,0.016-0.006,0.025-0.017
		c0.021-0.012,0.057-0.032,0.102-0.061c0.047-0.027,0.076-0.042,0.086-0.042c0.013,0,0.046,0,0.104,0c0.057,0,0.12,0,0.188,0
		c0.067,0,0.132,0,0.188,0c0.057,0,0.098,0,0.12,0c0.011,0,0.048-0.009,0.111-0.025c0.062-0.019,0.128-0.034,0.195-0.051
		c0.067-0.019,0.131-0.038,0.188-0.062c0.056-0.021,0.095-0.034,0.119-0.034c0.012,0,0.039,0,0.084,0c0.046,0,0.102,0,0.165,0
		c0.061,0,0.116,0,0.169,0c0.052,0,0.083,0,0.095,0c0.034-0.012,0.062-0.022,0.086-0.035c0.021-0.011,0.04-0.021,0.05-0.033
		c0.012-0.012,0.023-0.018,0.035-0.018c0.022,0,0.079,0.002,0.171,0.008c0.091,0.007,0.146,0.003,0.17-0.008
		c0.012,0,0.04-0.024,0.086-0.078c0.046-0.051,0.079-0.083,0.103-0.093c0.022-0.011,0.107-0.038,0.257-0.078
		c0.147-0.039,0.257-0.069,0.325-0.094h0.051h0.052c0.011,0,0.027,0.012,0.051,0.034c0.022,0.022,0.036,0.04,0.036,0.051
		c0,0.024,0.008,0.101,0.023,0.232c0.018,0.13,0.032,0.225,0.043,0.281c0,0.022,0.002,0.055,0.008,0.095
		c0.008,0.041,0.011,0.064,0.011,0.076h-0.273c0,0.047-0.008,0.12-0.024,0.224c-0.019,0.102-0.042,0.208-0.069,0.314
		c-0.027,0.109-0.058,0.211-0.085,0.309c-0.027,0.097-0.055,0.162-0.078,0.195c-0.021,0.034-0.062,0.086-0.117,0.153
		c-0.06,0.069-0.124,0.144-0.197,0.222c-0.074,0.08-0.146,0.152-0.214,0.215c-0.066,0.062-0.12,0.1-0.153,0.11
		c-0.022-0.011-0.08-0.025-0.171-0.043c-0.092-0.017-0.146-0.029-0.171-0.042h-0.205h-0.138c-0.033,0.013-0.093,0.037-0.179,0.077
		c-0.085,0.04-0.174,0.082-0.265,0.127c-0.093,0.046-0.178,0.091-0.258,0.137c-0.079,0.046-0.137,0.073-0.17,0.085
		c0-0.034-0.009-0.108-0.025-0.223c-0.019-0.113-0.038-0.182-0.062-0.205c-0.011-0.021-0.049-0.04-0.118-0.052
		c-0.07-0.011-0.115-0.022-0.137-0.033c-0.014,0-0.032-0.015-0.062-0.043c-0.027-0.028-0.041-0.048-0.041-0.06
		c-0.014,0-0.037-0.01-0.078-0.026c-0.04-0.017-0.064-0.031-0.078-0.042h-0.05h-0.052c-0.011,0.012-0.019,0.017-0.025,0.017
		c-0.006,0-0.013,0.008-0.025,0.019c-0.011,0.012-0.019,0.021-0.019,0.034c-0.011,0.021-0.015,0.067-0.015,0.136
		c0,0.069,0.004,0.114,0.015,0.137c-0.011,0-0.029-0.011-0.058-0.035c-0.03-0.021-0.044-0.039-0.044-0.051
		c-0.012-0.021-0.029-0.064-0.052-0.128c-0.022-0.062-0.032-0.104-0.032-0.128c-0.036-0.057-0.063-0.085-0.086-0.085l-0.342,0.154
		v0.581c-0.024,0-0.053,0.006-0.087,0.017c-0.033,0.011-0.062,0.018-0.086,0.018c-0.011,0.012-0.026,0.04-0.051,0.086
		c-0.021,0.045-0.04,0.073-0.051,0.086c-0.024,0.032-0.067,0.085-0.129,0.152c-0.063,0.068-0.104,0.108-0.129,0.121
		c-0.022,0.01-0.095,0.04-0.213,0.085c-0.12,0.045-0.191,0.069-0.214,0.069l-0.104,0.102h-0.018h-0.052
		c-0.032-0.012-0.083-0.029-0.146-0.052c-0.062-0.021-0.1-0.041-0.11-0.05c-0.022,0-0.058-0.024-0.104-0.069
		s-0.067-0.075-0.067-0.085c-0.011-0.022-0.027-0.068-0.051-0.139c-0.022-0.067-0.04-0.113-0.052-0.135L102.702,37.434z
		 M98.192,31.709c0,0.012,0.016,0.028,0.043,0.051c0.026,0.022,0.047,0.04,0.061,0.051h0.019h0.05l0.052-0.051
		c0.011-0.012,0.023-0.028,0.034-0.051l-0.153-0.325c-0.014,0-0.033,0.035-0.061,0.103s-0.043,0.113-0.043,0.137v0.051
		L98.192,31.709L98.192,31.709z M100.959,28.172c0.013-0.011,0.025-0.054,0.044-0.128c0.019-0.075,0.025-0.123,0.025-0.146v-0.034
		v-0.052c0-0.034-0.008-0.082-0.025-0.146c-0.019-0.062-0.031-0.1-0.044-0.111c-0.012-0.011-0.05-0.054-0.119-0.128
		c-0.068-0.074-0.113-0.123-0.137-0.146c-0.012-0.021-0.032-0.051-0.061-0.085c-0.027-0.033-0.043-0.062-0.043-0.085
		c0.023-0.011,0.04-0.022,0.053-0.033l0.051-0.053h0.035h0.032c0.014,0.013,0.022,0.021,0.035,0.026
		c0.011,0.005,0.022,0.014,0.033,0.025l0.034,0.033c0,0.022,0.012,0.058,0.035,0.104c0.021,0.045,0.038,0.067,0.05,0.067
		c0.023,0.023,0.054,0.023,0.094,0c0.041-0.021,0.065-0.033,0.078-0.033v-0.461c0.022,0.012,0.05,0.041,0.086,0.086
		c0.033,0.045,0.062,0.074,0.085,0.085h0.138h0.119c0.021,0,0.043-0.011,0.061-0.034c0.016-0.022,0.024-0.04,0.024-0.051
		c0.022-0.035,0.043-0.108,0.06-0.223c0.019-0.113,0.027-0.183,0.027-0.206c0.021,0.022,0.063,0.052,0.126,0.086
		c0.062,0.033,0.105,0.062,0.128,0.084h0.054h0.051c0.012-0.021,0.062-0.064,0.153-0.127c0.09-0.062,0.153-0.11,0.188-0.146
		l0.085-0.085c0.012-0.012,0.028-0.04,0.052-0.085c0.022-0.045,0.035-0.074,0.035-0.085l0.222,0.256v-0.563
		c0.079,0.012,0.154,0.017,0.221,0.017c0.061,0.012,0.117,0.018,0.182,0.018c0.062,0,0.115,0.005,0.161,0.018
		c0.014,0,0.019,0.006,0.019,0.017c0,0.023,0.006,0.034,0.017,0.034l0.034,0.034c0.011,0,0.043-0.002,0.094-0.01
		c0.054-0.005,0.083-0.002,0.096,0.01c0.01,0.011,0.024,0.054,0.044,0.128c0.017,0.073,0.028,0.123,0.043,0.145
		c0.01,0.011,0.022,0.037,0.041,0.077c0.017,0.04,0.03,0.066,0.044,0.077l0.102,0.103h0.018h0.051
		c0.035-0.022,0.074-0.08,0.12-0.171c0.045-0.09,0.067-0.152,0.067-0.188c0-0.024-0.026-0.055-0.087-0.096
		c-0.056-0.039-0.091-0.064-0.102-0.076l-0.033-0.085c-0.012-0.022-0.018-0.052-0.018-0.086h0.924
		c0.01,0.022,0.023,0.066,0.042,0.128c0.017,0.062,0.031,0.105,0.044,0.128c0.021,0.022,0.052,0.067,0.093,0.137
		c0.04,0.068,0.07,0.108,0.093,0.12h0.035h0.034c-0.011-0.022-0.003-0.08,0.026-0.17c0.027-0.091,0.053-0.149,0.074-0.171
		c0.014-0.013,0.066-0.026,0.165-0.043c0.096-0.018,0.154-0.032,0.178-0.042c0-0.013,0.012-0.04,0.035-0.086
		c0.022-0.046,0.039-0.074,0.051-0.084l0.036-0.019l0.049,0.019c0.013,0.011,0.041,0.036,0.087,0.076
		c0.045,0.04,0.073,0.071,0.085,0.095h0.051h0.034c0.011-0.013,0.042-0.028,0.087-0.052c0.046-0.021,0.073-0.034,0.085-0.034
		c0.01,0,0.027-0.002,0.051-0.009c0.022-0.006,0.04-0.009,0.051-0.009v0.461c0.013,0,0.037,0.009,0.077,0.025
		c0.041,0.018,0.071,0.032,0.094,0.043c0.014,0.022,0.022,0.04,0.034,0.052c0.023,0.023,0.042,0.034,0.053,0.034h0.067
		c0.012,0,0.039,0.014,0.085,0.043c0.046,0.028,0.08,0.048,0.103,0.06h0.087c0.011,0.022,0.023,0.077,0.042,0.163
		c0.018,0.085,0.032,0.146,0.043,0.18v0.137v0.103l-0.358-0.152c-0.022,0.011-0.042,0.034-0.059,0.067
		c-0.019,0.035-0.021,0.063-0.01,0.085c0,0.023,0.025,0.068,0.076,0.138c0.052,0.067,0.082,0.107,0.094,0.118v0.273v0.256
		c0,0.023-0.015,0.043-0.042,0.061c-0.027,0.017-0.049,0.025-0.061,0.025s-0.04-0.011-0.086-0.034
		c-0.023-0.012-0.046-0.027-0.068-0.052c-0.032,0-0.096,0.006-0.187,0.018c-0.093,0.012-0.147,0.018-0.171,0.018v0.256
		c-0.035,0-0.062-0.012-0.087-0.035l-0.17-0.171c-0.035,0.023-0.063,0.041-0.087,0.052c-0.012,0.012-0.027,0.018-0.049,0.018
		c-0.014,0-0.025,0.006-0.036,0.018c-0.022,0-0.067-0.022-0.137-0.068c-0.068-0.045-0.113-0.079-0.136-0.104
		c-0.014-0.011-0.024-0.054-0.035-0.127c-0.013-0.075-0.022-0.117-0.035-0.129c-0.021-0.021-0.075-0.08-0.16-0.171
		c-0.086-0.091-0.151-0.148-0.197-0.17c-0.012-0.011-0.037-0.028-0.077-0.051c-0.04-0.023-0.07-0.04-0.093-0.052
		c-0.014,0-0.063-0.011-0.154-0.033c-0.092-0.022-0.154-0.04-0.188-0.053h-0.053h-0.036c-0.011,0.013-0.042,0.03-0.093,0.053
		c-0.052,0.022-0.083,0.033-0.094,0.033c-0.012,0-0.041-0.009-0.086-0.025c-0.046-0.017-0.07-0.036-0.07-0.061
		c-0.031,0.023-0.095,0.065-0.185,0.129c-0.095,0.062-0.149,0.105-0.171,0.127c-0.024,0.023-0.081,0.058-0.174,0.104
		c-0.092,0.046-0.146,0.068-0.171,0.068c-0.021,0.012-0.083,0.031-0.178,0.06c-0.099,0.028-0.158,0.042-0.182,0.042
		c-0.012,0.012-0.039,0.028-0.085,0.051c-0.046,0.024-0.073,0.035-0.085,0.035c-0.013,0.011-0.065,0.014-0.163,0.008
		c-0.097-0.005-0.156-0.008-0.18-0.008c-0.012,0-0.036,0.011-0.077,0.034c-0.04,0.022-0.069,0.033-0.094,0.033
		c0,0.012-0.015,0.031-0.042,0.06c-0.028,0.029-0.05,0.043-0.061,0.043c0,0.012-0.023,0.029-0.068,0.052
		c-0.046,0.023-0.074,0.034-0.085,0.034c-0.034,0.023-0.105,0.068-0.215,0.138c-0.107,0.067-0.186,0.113-0.229,0.137
		c0,0.011-0.037,0.04-0.111,0.085c-0.073,0.046-0.121,0.068-0.145,0.068c-0.023,0.022-0.053,0.046-0.086,0.068
		c-0.033,0.023-0.062,0.034-0.085,0.034c-0.012,0.012-0.022,0.017-0.036,0.017h-0.05h-0.052c-0.012,0-0.029-0.005-0.051-0.017
		l-0.034-0.034c-0.022-0.021-0.035-0.046-0.035-0.068v-0.068v-0.086H100.959z M102.772,35.52c-0.024-0.011-0.035,0.002-0.035,0.042
		s0.011,0.055,0.035,0.043c0.032-0.012,0.051-0.025,0.051-0.043C102.822,35.544,102.804,35.531,102.772,35.52z M102.857,36.903
		c0.012,0.022,0.039,0.068,0.085,0.137s0.074,0.107,0.085,0.119c0,0.012,0.006,0.019,0.017,0.019h0.036h0.033
		c0.012,0,0.018-0.007,0.018-0.019c0.012,0,0.024-0.012,0.043-0.034c0.019-0.023,0.024-0.04,0.024-0.052v-0.017
		c0-0.013,0.003-0.018,0.011-0.018c0.005,0,0.007-0.006,0.007-0.018c0-0.011-0.005-0.017-0.018-0.017
		c0-0.011-0.022-0.028-0.067-0.051c-0.045-0.023-0.08-0.04-0.104-0.052h-0.067L102.857,36.903L102.857,36.903z M103.182,26.24
		c0,0.012,0.002,0.043,0.009,0.095c0.005,0.052,0.007,0.088,0.007,0.11c0.013,0.012,0.029,0.022,0.053,0.035
		c0.023,0.011,0.04,0.023,0.051,0.033h0.034h0.051c0.014-0.01,0.025-0.022,0.043-0.033c0.019-0.012,0.025-0.022,0.025-0.035
		c0-0.022-0.02-0.057-0.061-0.103c-0.039-0.045-0.07-0.074-0.094-0.085c0-0.012-0.018-0.018-0.051-0.018
		C103.215,26.24,103.192,26.24,103.182,26.24z M103.301,35.434h0.085l-0.085-0.103V35.434z M103.831,37.023
		c-0.034,0-0.07,0.018-0.102,0.052c-0.015,0.022-0.026,0.065-0.043,0.128c-0.02,0.062-0.034,0.105-0.044,0.129
		c-0.013,0.021-0.019,0.054-0.019,0.093c0,0.04,0,0.064,0,0.078h0.104c0.01,0,0.022-0.043,0.041-0.128
		c0.017-0.085,0.03-0.157,0.044-0.213v-0.068c0-0.023,0.002-0.038,0.008-0.043C103.826,37.043,103.831,37.033,103.831,37.023z
		 M103.643,36.22c0,0.023,0.008,0.054,0.024,0.093c0.02,0.041,0.037,0.066,0.062,0.078c0.021-0.011,0.055-0.037,0.102-0.078
		c0.044-0.039,0.074-0.069,0.085-0.093c0.012-0.011,0.018-0.034,0.018-0.069c0-0.034,0-0.056,0-0.067
		c-0.011,0-0.045,0.006-0.094,0.017c-0.053,0.012-0.089,0.017-0.109,0.017C103.67,36.151,103.643,36.186,103.643,36.22z
		 M103.916,26.615c-0.057,0-0.085,0.029-0.085,0.087c0,0.057,0.028,0.085,0.085,0.085c0.034,0,0.051-0.028,0.051-0.085
		S103.95,26.615,103.916,26.615z M104.427,36.391c-0.046,0-0.066,0.025-0.066,0.077c0,0.051,0.021,0.077,0.066,0.077
		c0.045,0,0.068-0.026,0.068-0.077C104.496,36.416,104.472,36.391,104.427,36.391z M105.727,26.087c0,0.011,0.011,0.027,0.035,0.051
		c0.021,0.022,0.038,0.04,0.05,0.051v-0.051v-0.051c-0.032-0.059-0.062-0.086-0.085-0.086l-0.019,0.034L105.727,26.087z
		 M106.188,36.442c-0.011,0-0.03,0.003-0.06,0.009c-0.028,0.006-0.05,0.015-0.061,0.025c-0.013,0.012-0.028,0.037-0.051,0.077
		c-0.023,0.041-0.034,0.072-0.034,0.095c-0.013,0.022-0.021,0.067-0.025,0.136c-0.008,0.069-0.01,0.114-0.01,0.138
		c0.013,0,0.033,0,0.061,0c0.028,0,0.048-0.005,0.061-0.018c0.023,0,0.044-0.012,0.061-0.033c0.019-0.023,0.026-0.04,0.026-0.052
		c0-0.022,0.004-0.085,0.015-0.188C106.184,36.527,106.188,36.464,106.188,36.442z M105.984,36.031c0.011,0,0.024-0.011,0.043-0.033
		c0.018-0.022,0.03-0.04,0.042-0.052v-0.034v-0.052L105.984,36.031z M106.24,35.776c-0.046,0-0.07,0.028-0.07,0.085
		c0,0.058,0.024,0.085,0.07,0.085c0.056,0,0.086-0.027,0.086-0.085C106.326,35.804,106.296,35.776,106.24,35.776z M106.342,26.702
		c-0.032-0.023-0.051-0.015-0.051,0.024c0,0.041,0.019,0.061,0.051,0.061C106.4,26.731,106.4,26.702,106.342,26.702z M106.41,27.215
		c-0.034,0-0.052,0.028-0.052,0.085s0.018,0.085,0.052,0.085c0.056,0,0.087-0.028,0.087-0.085S106.466,27.215,106.41,27.215z
		 M106.511,35.605c-0.031-0.012-0.05,0.002-0.05,0.042c0,0.041,0.019,0.055,0.05,0.043C106.57,35.668,106.57,35.639,106.511,35.605z
		 M107.453,36.544c-0.047,0-0.069,0.03-0.069,0.094s0.022,0.094,0.069,0.094c0.055,0,0.087-0.03,0.087-0.094
		C107.54,36.576,107.508,36.544,107.453,36.544z M107.794,35.912c0,0.012,0.007,0.022,0.018,0.034c0,0.012,0.01,0.029,0.026,0.052
		c0.018,0.022,0.03,0.033,0.043,0.033c0.012,0,0.028-0.011,0.05-0.033c0.024-0.022,0.035-0.04,0.035-0.052v-0.034
		c0-0.012,0.002-0.02,0.01-0.025c0.005-0.006,0.008-0.014,0.008-0.025c0-0.021,0.006-0.052,0.018-0.085h-0.119
		c-0.013,0-0.025,0.012-0.043,0.033c-0.018,0.023-0.026,0.041-0.026,0.052L107.794,35.912z"/>
	<path fill="#FFFFFF" d="M110.273,37.74c-0.093-0.035-0.146-0.117-0.164-0.247c-0.017-0.132-0.024-0.248-0.024-0.352
		c0-0.147,0.021-0.287,0.067-0.418c0.045-0.13,0.099-0.265,0.154-0.402c0.058-0.136,0.11-0.272,0.162-0.409
		c0.051-0.137,0.077-0.278,0.077-0.428h0.324c0-0.317-0.006-0.589-0.016-0.812c-0.014-0.224,0.016-0.481,0.083-0.777
		c0.102,0.08,0.163,0.111,0.181,0.093c0.018-0.017,0.083-0.024,0.196-0.024v-0.068c0-0.011-0.017-0.06-0.043-0.145
		c-0.029-0.086-0.043-0.141-0.043-0.163c0-0.023,0.027-0.1,0.086-0.231c0.057-0.13,0.085-0.208,0.085-0.229v-0.052
		c0-0.022,0.004-0.039,0.008-0.051c0.007-0.011,0.01-0.027,0.01-0.051c0-0.022-0.003-0.054-0.01-0.094
		c-0.004-0.04-0.008-0.071-0.008-0.094c0-0.012-0.002-0.058-0.01-0.139c-0.005-0.079-0.013-0.162-0.024-0.246
		c-0.012-0.086-0.023-0.166-0.033-0.239c-0.013-0.073-0.018-0.122-0.018-0.146v-0.052v-0.051c0-0.022,0.005-0.085,0.018-0.188
		c0.01-0.103,0.021-0.213,0.033-0.333c0.013-0.12,0.021-0.228,0.024-0.324c0.008-0.097,0.01-0.155,0.01-0.179
		c0-0.058,0.015-0.183,0.043-0.376c0.027-0.193,0.064-0.396,0.109-0.606c0.046-0.211,0.093-0.4,0.139-0.571
		c0.045-0.171,0.097-0.263,0.153-0.274c0.058,0.081,0.095,0.168,0.11,0.266c0.016,0.097,0.032,0.18,0.043,0.246h0.084
		c0-0.192-0.013-0.39-0.041-0.589c-0.029-0.199-0.043-0.396-0.043-0.589c0-0.021,0.011-0.083,0.034-0.18
		c0.021-0.097,0.055-0.197,0.094-0.299c0.038-0.104,0.085-0.197,0.137-0.282c0.052-0.086,0.1-0.128,0.146-0.128h0.032l0.172,0.342
		v-0.224c0-0.092-0.02-0.181-0.052-0.266c-0.033-0.086-0.052-0.168-0.052-0.248c0.079,0,0.183-0.015,0.308-0.042
		c0.126-0.028,0.2-0.089,0.224-0.18c-0.012-0.034-0.038-0.058-0.078-0.068c-0.039-0.012-0.089-0.017-0.146-0.017
		s-0.125,0.005-0.204,0.017c-0.014-0.034-0.009-0.083,0.008-0.146c0.018-0.062,0.037-0.099,0.06-0.111
		c0.023-0.021,0.074-0.024,0.154-0.008c0.081,0.017,0.126,0.021,0.137,0.008l0.069-0.272c0.023-0.012,0.084-0.012,0.188,0
		c0.103,0.011,0.165,0.011,0.188,0c0.011,0,0.04-0.012,0.085-0.034c0.023-0.012,0.042-0.028,0.052-0.051
		c0.013-0.012,0.021-0.018,0.035-0.018c0,0.138,0.024,0.266,0.076,0.384c0.051,0.121,0.108,0.24,0.169,0.359
		c0.063,0.12,0.122,0.24,0.172,0.359c0.052,0.12,0.078,0.248,0.078,0.385c0,0.125-0.012,0.242-0.035,0.35
		c-0.021,0.108-0.034,0.226-0.034,0.351c0,0.126,0.048,0.254,0.139,0.384c0.091,0.132,0.187,0.23,0.289,0.299
		c0,0.057-0.005,0.154-0.018,0.29c-0.011,0.138-0.014,0.28-0.009,0.428c0.006,0.148,0.028,0.285,0.069,0.41
		c0.039,0.125,0.11,0.211,0.213,0.256c-0.011,0.194-0.008,0.447,0.009,0.762c0.017,0.313,0.049,0.638,0.095,0.974
		c0.045,0.336,0.101,0.657,0.162,0.965c0.062,0.309,0.141,0.559,0.23,0.752c0.012,0,0.021,0.003,0.023,0.008
		c0.008,0.007,0.017,0.01,0.026,0.01c0.091,0,0.181-0.061,0.267-0.181c0.083-0.119,0.163-0.257,0.238-0.41
		c0.074-0.152,0.139-0.308,0.196-0.461c0.055-0.153,0.107-0.271,0.152-0.351c0-0.011,0.019-0.04,0.052-0.086
		c0.035-0.045,0.068-0.096,0.104-0.153c0.032-0.057,0.066-0.107,0.104-0.152c0.031-0.047,0.055-0.08,0.065-0.104
		c0.011-0.068,0.029-0.2,0.052-0.393c0.022-0.194,0.061-0.396,0.11-0.606c0.052-0.211,0.125-0.398,0.223-0.563
		s0.226-0.248,0.385-0.248c0,0.011-0.002,0.033-0.007,0.067c-0.008,0.034-0.01,0.059-0.01,0.068c0,0.022-0.013,0.062-0.035,0.12
		c-0.021,0.057-0.038,0.097-0.051,0.12l0.272,0.102h0.053c0.046,0,0.076,0.019,0.094,0.052c0.019,0.034,0.025,0.074,0.025,0.119
		c0,0.046,0.005,0.086,0.017,0.12s0.046,0.051,0.104,0.051c0.09,0,0.156,0.029,0.194,0.085c0.04,0.058,0.115,0.085,0.229,0.085
		v-0.922c-0.055-0.045-0.11-0.12-0.161-0.223c-0.052-0.103-0.098-0.208-0.138-0.316c-0.039-0.107-0.076-0.206-0.111-0.29
		c-0.032-0.086-0.062-0.128-0.084-0.128l-0.018,0.019c-0.023,0.011-0.079,0.045-0.17,0.103c-0.093,0.058-0.149,0.085-0.173,0.085
		c-0.067,0-0.118-0.034-0.151-0.103c-0.036-0.069-0.053-0.13-0.053-0.188c0-0.08,0.019-0.12,0.06-0.12
		c0.04,0,0.082-0.005,0.128-0.017c0.045-0.011,0.089-0.04,0.128-0.086c0.042-0.045,0.062-0.148,0.062-0.309h0.102v0.309
		c0.078,0,0.14,0.003,0.179,0.009c0.042,0.006,0.062-0.064,0.062-0.213V28.7c0-0.01-0.007-0.06-0.018-0.144
		c-0.012-0.086-0.021-0.177-0.034-0.274c-0.012-0.097-0.022-0.188-0.032-0.272c-0.015-0.085-0.019-0.14-0.019-0.162v-0.085v-0.085
		c0.011-0.057,0.027-0.143,0.051-0.256c0.022-0.115,0.041-0.178,0.052-0.188c0-0.012,0.02-0.037,0.059-0.077
		c0.041-0.04,0.085-0.083,0.14-0.129c0.051-0.045,0.097-0.088,0.136-0.128c0.04-0.04,0.064-0.065,0.077-0.077
		c0.011-0.012,0.032-0.051,0.068-0.119c0.032-0.068,0.069-0.144,0.111-0.223c0.038-0.08,0.085-0.15,0.136-0.214
		c0.052-0.062,0.104-0.094,0.162-0.094c0.046,0,0.069,0.012,0.069,0.034l0.171,0.733l0.136,0.205c0.058-0.09,0.11-0.196,0.163-0.314
		c0.05-0.12,0.088-0.208,0.11-0.267c0.011,0,0.02-0.002,0.024-0.008c0.006-0.006,0.016-0.008,0.025-0.008s0.057,0.02,0.137,0.06
		s0.165,0.082,0.257,0.127c0.092,0.046,0.211,0.115,0.36,0.206c0.01,0.069,0.035,0.163,0.074,0.282
		c0.04,0.12,0.081,0.248,0.121,0.384c0.039,0.139,0.072,0.272,0.102,0.402c0.029,0.131,0.044,0.237,0.044,0.315
		c0,0.047-0.061,0.083-0.182,0.111c-0.118,0.029-0.207,0.066-0.263,0.111l-0.154,0.152c0.01-0.078,0.004-0.167-0.019-0.265
		c-0.021-0.097-0.045-0.173-0.067-0.229c-0.022,0.011-0.067,0.049-0.137,0.109c-0.068,0.063-0.115,0.106-0.138,0.128
		c-0.023,0.012-0.048,0.006-0.075-0.017c-0.028-0.022-0.057-0.034-0.078-0.034c0,0.034-0.006,0.114-0.018,0.239
		c-0.011,0.125-0.017,0.21-0.017,0.256c0,0.023,0.011,0.042,0.032,0.06c0.022,0.019,0.047,0.026,0.068,0.026
		c0.229-0.012,0.428-0.052,0.601-0.12c0.17-0.067,0.356-0.103,0.562-0.103c0,0.067-0.016,0.14-0.043,0.213
		c-0.028,0.074-0.089,0.105-0.179,0.094c0.055,0.159,0.088,0.293,0.094,0.401c0.004,0.107,0.009,0.229,0.009,0.368v0.342
		c-0.023,0.012-0.053,0.043-0.087,0.094c-0.033,0.051-0.062,0.088-0.086,0.111v0.032v0.034c0.023,0.023,0.053,0.061,0.086,0.112
		c0.034,0.051,0.062,0.082,0.087,0.094c-0.023,0.068-0.037,0.162-0.044,0.281c-0.007,0.12,0.007,0.24,0.035,0.359
		c0.027,0.12,0.076,0.226,0.146,0.315c0.067,0.091,0.163,0.143,0.289,0.154c-0.091,0-0.142,0.009-0.152,0.024
		c-0.013,0.018-0.02,0.056-0.02,0.111c0,0.114,0.014,0.202,0.036,0.265s0.05,0.12,0.086,0.172c0.033,0.051,0.069,0.105,0.111,0.162
		c0.039,0.059,0.075,0.132,0.11,0.223c0,0.011-0.017,0.034-0.045,0.067c-0.026,0.035-0.043,0.058-0.043,0.068v0.633l-0.171,0.104
		c0,0.011-0.003,0.034-0.007,0.067c-0.007,0.035-0.009,0.062-0.009,0.085c0,0.148,0.028,0.291,0.085,0.428
		c0.056,0.137,0.122,0.271,0.196,0.4c0.073,0.132,0.141,0.266,0.196,0.402c0.057,0.136,0.084,0.279,0.084,0.427
		c0,0.104-0.035,0.171-0.11,0.206c-0.072,0.034-0.11,0.096-0.11,0.188c0,0.046,0.021,0.081,0.061,0.103
		c0.041,0.023,0.087,0.043,0.136,0.061c0.054,0.017,0.099,0.039,0.139,0.067c0.039,0.028,0.059,0.065,0.059,0.11
		c0,0.058-0.031,0.103-0.101,0.137c-0.07,0.035-0.126,0.063-0.171,0.086c0,0.023,0.01,0.091,0.033,0.205
		c0.021,0.114,0.039,0.188,0.052,0.222c0.01,0.023,0.046,0.081,0.103,0.172c0.057,0.09,0.084,0.146,0.084,0.17
		c0,0.034-0.023,0.076-0.075,0.128c-0.051,0.051-0.087,0.064-0.11,0.043l-0.617-0.257l-0.031,0.034
		c-0.035,0.034-0.058,0.052-0.069,0.052c-0.012,0.012-0.029,0.04-0.051,0.086c-0.023,0.045-0.034,0.073-0.034,0.085l-0.855,0.188
		c-0.021,0-0.05-0.06-0.086-0.18c-0.03-0.12-0.09-0.208-0.17-0.265c-0.091-0.068-0.145-0.114-0.162-0.137s-0.023-0.08-0.023-0.171
		c0-0.092,0.031-0.154,0.102-0.188c0.069-0.034,0.103-0.098,0.103-0.188c0-0.103-0.05-0.176-0.152-0.223
		c-0.103-0.045-0.154-0.113-0.154-0.205c0-0.068,0.019-0.134,0.053-0.197c0.033-0.062,0.052-0.14,0.052-0.229
		c0-0.104-0.034-0.172-0.104-0.205c-0.066-0.035-0.113-0.098-0.137-0.188c-0.17-0.387-0.278-0.82-0.324-1.299
		c-0.046-0.478-0.052-0.939-0.018-1.384c-0.059-0.022-0.11-0.076-0.162-0.162c-0.052-0.085-0.097-0.176-0.136-0.273
		c-0.042-0.097-0.075-0.19-0.104-0.281c-0.028-0.092-0.049-0.165-0.06-0.223c-0.033,0.058-0.104,0.113-0.213,0.17
		c-0.109,0.059-0.177,0.092-0.197,0.104v0.034c0,0.067,0.018,0.134,0.052,0.196c0.033,0.062,0.095,0.101,0.188,0.111l-0.104,0.085
		c0,0.023-0.013,0.066-0.035,0.128c-0.021,0.063-0.031,0.102-0.031,0.111c-0.014,0.022-0.053,0.037-0.121,0.043
		c-0.067,0.006-0.109,0.02-0.119,0.042c-0.023,0.034-0.034,0.094-0.034,0.179s0.011,0.14,0.034,0.162l-0.53,0.103
		c-0.023,0-0.063-0.002-0.128-0.008c-0.062-0.005-0.104-0.009-0.128-0.009c0,0.104,0.02,0.168,0.059,0.197
		c0.042,0.027,0.081,0.051,0.123,0.067c0.038,0.019,0.076,0.037,0.117,0.061c0.04,0.022,0.061,0.069,0.061,0.137
		c0,0.08-0.021,0.165-0.061,0.256c-0.041,0.091-0.086,0.18-0.136,0.266c-0.052,0.085-0.099,0.168-0.138,0.248
		c-0.038,0.08-0.061,0.143-0.061,0.188c0,0.08,0.031,0.144,0.093,0.188c0.063,0.045,0.097,0.118,0.097,0.222
		c0,0.057-0.016,0.137-0.043,0.24c-0.028,0.102-0.063,0.208-0.104,0.314c-0.039,0.109-0.077,0.211-0.11,0.309
		c-0.035,0.097-0.058,0.168-0.069,0.213c-0.158-0.058-0.292-0.045-0.4,0.035c-0.107,0.079-0.199,0.188-0.273,0.323
		c-0.073,0.138-0.132,0.285-0.17,0.445c-0.04,0.159-0.072,0.29-0.095,0.392c-0.013-0.021-0.041-0.054-0.087-0.094
		c-0.045-0.04-0.078-0.064-0.102-0.077h-0.018c-0.012,0-0.017-0.002-0.017-0.009c0-0.005-0.007-0.008-0.019-0.008
		c-0.058,0-0.105,0.015-0.146,0.042c-0.039,0.029-0.075,0.06-0.111,0.094c-0.032,0.034-0.067,0.065-0.103,0.094
		c-0.034,0.028-0.079,0.043-0.137,0.043c-0.069,0-0.098-0.009-0.086-0.026c0.013-0.018-0.012-0.071-0.067-0.162
		c-0.023-0.022-0.077-0.082-0.162-0.179c-0.086-0.097-0.145-0.156-0.181-0.181h-0.051c-0.08,0-0.201,0.035-0.367,0.104
		c-0.165,0.069-0.287,0.131-0.367,0.188c-0.023-0.045-0.034-0.091-0.034-0.137c0-0.057,0.014-0.094,0.043-0.111
		c0.029-0.017,0.062-0.03,0.104-0.043c0.038-0.011,0.072-0.019,0.103-0.024c0.027-0.005,0.043-0.031,0.043-0.077v-0.052
		c-0.035-0.08-0.055-0.159-0.061-0.238c-0.005-0.081-0.021-0.16-0.043-0.24c-0.033-0.091-0.087-0.185-0.153-0.282
		c-0.067-0.097-0.119-0.19-0.154-0.282c-0.012-0.022,0-0.062,0.035-0.12c0.034-0.057,0.068-0.11,0.101-0.162
		c0.036-0.051,0.063-0.096,0.086-0.136c0.023-0.04,0.023-0.061,0-0.061l-0.493-0.035c-0.06-0.057-0.136-0.088-0.23-0.094
		c-0.099-0.006-0.146-0.054-0.146-0.146c0-0.046,0.033-0.083,0.103-0.111c0.068-0.028,0.141-0.057,0.222-0.085
		c0.08-0.028,0.154-0.057,0.223-0.086c0.066-0.028,0.103-0.065,0.103-0.111c0-0.057-0.037-0.102-0.109-0.136
		c-0.075-0.035-0.162-0.069-0.267-0.104c-0.124-0.045-0.245-0.094-0.356-0.145c-0.114-0.052-0.174-0.118-0.174-0.197
		c0.06,0,0.114,0.012,0.174,0.035c0.057,0.022,0.118,0.033,0.188,0.033c0-0.159,0.008-0.29,0.025-0.393
		c0.017-0.102-0.037-0.223-0.163-0.358l0.479-0.035c-0.092-0.045-0.164-0.076-0.222-0.094c-0.057-0.019-0.137-0.048-0.239-0.095
		l-0.272,0.035h-0.033l-0.087,0.256c-0.011,0.058-0.023,0.146-0.041,0.266c-0.02,0.12-0.035,0.25-0.052,0.393
		c-0.019,0.144-0.035,0.277-0.053,0.403c-0.018,0.125-0.025,0.21-0.025,0.255c-0.034,0.069-0.076,0.111-0.128,0.129
		s-0.101,0.034-0.146,0.051c-0.047,0.018-0.086,0.041-0.119,0.068c-0.034,0.028-0.052,0.094-0.052,0.196
		c0,0.125,0.048,0.199,0.144,0.222c0.1,0.024,0.146,0.063,0.146,0.12s-0.014,0.103-0.043,0.136
		c-0.027,0.035-0.062,0.069-0.104,0.104c-0.037,0.034-0.071,0.068-0.102,0.103c-0.029,0.035-0.042,0.085-0.042,0.154
		c0,0.103,0.02,0.168,0.061,0.197c0.038,0.027,0.06,0.07,0.06,0.127c0,0.103-0.034,0.229-0.103,0.376s-0.141,0.296-0.215,0.443
		c-0.073,0.148-0.144,0.293-0.213,0.438c-0.067,0.142-0.103,0.264-0.103,0.368c0,0.102,0.057,0.176,0.172,0.221
		c-0.069,0.035-0.11,0.085-0.128,0.153c-0.02,0.067-0.03,0.138-0.036,0.207c-0.006,0.066-0.018,0.129-0.033,0.188
		c-0.018,0.057-0.056,0.085-0.11,0.085h-0.034c-0.014,0-0.019-0.006-0.019-0.018c-0.091-0.079-0.173-0.146-0.247-0.197
		c-0.075-0.051-0.14-0.103-0.194-0.154c-0.061-0.05-0.106-0.113-0.146-0.186c-0.041-0.076-0.064-0.175-0.077-0.3L110.273,37.74z
		 M112.339,28.359h0.224c0-0.067-0.017-0.128-0.052-0.18c-0.034-0.051-0.091-0.076-0.172-0.076V28.359z M112.339,28.787l0.104,0.103
		c0-0.011,0.004-0.02,0.009-0.026c0.007-0.006,0.009-0.014,0.009-0.024l-0.018-0.034v-0.017c0-0.013-0.012-0.026-0.032-0.043
		c-0.025-0.018-0.048-0.03-0.07-0.043v0.034L112.339,28.787L112.339,28.787z M112.339,32.512c0,0.023,0.014,0.06,0.035,0.111
		c0.022,0.051,0.046,0.083,0.067,0.094l0.547-0.085l-0.411-0.53c-0.01,0-0.027,0.021-0.049,0.061
		c-0.023,0.041-0.05,0.083-0.078,0.129s-0.054,0.09-0.076,0.136C112.352,32.472,112.339,32.501,112.339,32.512z M112.51,31.623
		c0,0.022,0.019,0.064,0.052,0.128c0.032,0.062,0.073,0.128,0.118,0.196c0.047,0.068,0.097,0.127,0.146,0.18
		c0.051,0.052,0.089,0.083,0.11,0.094l-0.17-1.11c-0.023,0.013-0.052,0.041-0.088,0.085c-0.032,0.046-0.062,0.099-0.086,0.155
		c-0.021,0.057-0.042,0.114-0.06,0.171C112.52,31.578,112.51,31.612,112.51,31.623z M112.528,30.718h0.085V30.65h-0.085V30.718z
		 M112.613,31.127v-0.103h-0.085L112.613,31.127z M112.613,28.787l0.066-0.086h-0.066V28.787z M113.142,34.613V34.51h-0.102
		L113.142,34.613z M113.142,33.4c-0.022,0,0.01,0.048,0.097,0.146c0.084,0.097,0.183,0.206,0.298,0.325
		c0.114,0.118,0.228,0.228,0.341,0.324c0.114,0.098,0.185,0.146,0.206,0.146c0.079,0,0.1-0.048,0.061-0.146
		c-0.041-0.097-0.115-0.206-0.224-0.324c-0.107-0.119-0.232-0.229-0.375-0.325C113.4,33.448,113.268,33.4,113.142,33.4z
		 M114.083,35.195c-0.058,0.058-0.123,0.116-0.196,0.18c-0.074,0.062-0.11,0.14-0.11,0.23c0.271,0.229,0.444,0.324,0.521,0.29
		c0.074-0.034,0.004-0.232-0.213-0.598v-0.051L114.083,35.195L114.083,35.195z M113.809,29.008c0,0.058,0.017,0.115,0.052,0.171
		c0.034,0.058,0.085,0.086,0.152,0.086v-0.393c-0.056,0-0.104,0.011-0.145,0.033C113.829,28.93,113.809,28.963,113.809,29.008z
		 M113.809,33.076c0.059,0,0.104-0.025,0.137-0.077c0.034-0.052,0.058-0.101,0.067-0.146h-0.204V33.076z M114.356,31.829
		c-0.068,0.045-0.103,0.112-0.103,0.204c0.078,0,0.143-0.039,0.188-0.119L114.356,31.829z M114.272,32.717
		c0,0.046,0.027,0.068,0.084,0.068V32.75v-0.034l-0.084-0.104c0,0.013-0.005,0.021-0.01,0.026c-0.007,0.005-0.009,0.015-0.009,0.025
		L114.272,32.717z M114.441,31.23v-0.103h-0.085L114.441,31.23z M114.441,36.186h0.103v-0.103h-0.103V36.186z M115.909,33.333
		c-0.056,0-0.084,0.023-0.084,0.075s0.028,0.077,0.084,0.077c0.06,0,0.087-0.025,0.087-0.077S115.969,33.333,115.909,33.333z
		 M116.099,34.733c0.103,0,0.154-0.057,0.154-0.171l-0.018-0.052c-0.015,0-0.021-0.01-0.026-0.033
		c-0.006-0.022-0.016-0.034-0.024-0.034h-0.052h-0.034V34.733z M116.236,32.614l0.103-0.103V32.46v-0.035L116.236,32.614z
		 M116.339,35.553h0.084v-0.068L116.339,35.553z M116.697,35.041c-0.024,0-0.034,0.012-0.034,0.033c0,0.023,0.01,0.034,0.034,0.034
		C116.742,35.064,116.742,35.041,116.697,35.041z M117.038,32.512c-0.056,0-0.087,0.034-0.087,0.103
		c0,0.069,0.031,0.104,0.087,0.104c0.058,0,0.085-0.034,0.085-0.104C117.123,32.546,117.095,32.512,117.038,32.512z M117.227,32.614
		l0.067-0.103h-0.067V32.614z M117.295,32.016h0.205l-0.102-0.103L117.295,32.016z M117.484,31.127c0,0.012,0.003,0.028,0.008,0.052
		c0.007,0.023,0.009,0.041,0.009,0.051c0.012,0.023,0.026,0.068,0.042,0.137c0.018,0.067,0.026,0.108,0.026,0.12l0.018,0.018
		c0.091,0,0.144-0.048,0.153-0.146c0.01-0.097,0.018-0.174,0.018-0.23L117.484,31.127L117.484,31.127z M118.952,33.042h0.171
		c0-0.058-0.009-0.114-0.026-0.171c-0.017-0.058-0.059-0.085-0.127-0.085h-0.018V33.042z M119.107,32.426
		c-0.035-0.01-0.054,0.003-0.054,0.043s0.019,0.054,0.054,0.042c0.022-0.011,0.034-0.026,0.034-0.042
		C119.141,32.452,119.13,32.438,119.107,32.426z M119.071,27.385c0,0.16,0.068,0.257,0.206,0.291
		c0.136,0.033,0.268,0.051,0.394,0.051c0-0.193-0.05-0.299-0.146-0.315C119.428,27.394,119.277,27.385,119.071,27.385z
		 M119.465,30.017v-0.188l-0.086,0.085L119.465,30.017z M119.738,29.572c-0.034-0.011-0.051,0.032-0.051,0.128
		c0,0.098,0.017,0.141,0.051,0.129c0.022-0.022,0.034-0.065,0.034-0.129C119.773,29.639,119.761,29.596,119.738,29.572z
		 M119.704,29.248c0,0.057,0.021,0.1,0.068,0.128c0.045,0.027,0.086,0.043,0.119,0.043v-0.171H119.704z M119.979,30.102
		c-0.046,0-0.069,0.029-0.069,0.086c0,0.058,0.023,0.085,0.069,0.085c0.056,0,0.085-0.027,0.085-0.085
		C120.064,30.131,120.034,30.102,119.979,30.102z M120.423,31.76c-0.058,0-0.087,0.025-0.087,0.077s0.029,0.077,0.087,0.077
		c0.032,0,0.05-0.025,0.05-0.077S120.455,31.76,120.423,31.76z M120.49,33.127c0,0.091,0.034,0.153,0.102,0.188
		c0.069,0.035,0.131,0.051,0.188,0.051c0-0.158-0.067-0.238-0.205-0.238H120.49z M120.884,35.074
		c0.022,0.023,0.039,0.034,0.051,0.034h0.052h0.035c0-0.045-0.028-0.067-0.087-0.067h-0.032h-0.053L120.884,35.074z"/>
	<path fill="#FFFFFF" d="M123.976,37.723c-0.047-0.102-0.068-0.211-0.068-0.324c0-0.091,0.029-0.15,0.085-0.179
		c0.058-0.029,0.085-0.083,0.085-0.162c0-0.081-0.018-0.146-0.049-0.197c-0.036-0.051-0.077-0.109-0.121-0.18h0.017
		c0.014,0,0.019-0.002,0.019-0.008c0-0.005,0.006-0.009,0.018-0.009h0.052c0.091,0,0.137,0.028,0.137,0.086
		c0,0.057,0.027,0.084,0.086,0.084h0.05c-0.011-0.159,0.005-0.303,0.044-0.428s0.084-0.248,0.137-0.366
		c0.051-0.12,0.101-0.242,0.146-0.368c0.048-0.125,0.068-0.269,0.068-0.427c0.046,0,0.073,0.016,0.087,0.051
		c0.01,0.034,0.045,0.051,0.102,0.051c0.16,0,0.325-0.023,0.495-0.069c0.171-0.045,0.331-0.096,0.479-0.152l0.139,0.513
		c0.021-0.011,0.046-0.041,0.066-0.085c0.023-0.045,0.044-0.097,0.062-0.154c0.017-0.057,0.026-0.11,0.03-0.163
		c0.008-0.051,0.005-0.088-0.006-0.11c0.112-0.092,0.217-0.168,0.308-0.23c0.091-0.062,0.197-0.094,0.323-0.094
		c0.012,0,0.03,0.003,0.062,0.009c0.027,0.006,0.047,0.008,0.058,0.008l-0.152,0.154c0.022,0.057,0.045,0.122,0.067,0.196
		c0.022,0.073,0.047,0.109,0.068,0.109c0.079,0,0.142-0.03,0.188-0.094c0.046-0.062,0.085-0.133,0.12-0.213
		c0.032-0.08,0.067-0.163,0.104-0.248c0.032-0.086,0.073-0.151,0.118-0.197c0.045-0.045,0.097-0.077,0.152-0.094
		c0.06-0.017,0.108-0.035,0.155-0.051c0.046-0.018,0.084-0.041,0.119-0.069s0.051-0.077,0.051-0.146c0-0.091-0.043-0.167-0.127-0.23
		c-0.086-0.062-0.175-0.094-0.266-0.094c-0.058,0-0.094,0.014-0.11,0.042c-0.018,0.029-0.044,0.043-0.077,0.043h-0.034
		c-0.021-0.148-0.046-0.299-0.067-0.453c-0.023-0.153-0.053-0.299-0.086-0.435h-0.035h-0.031c-0.025,0-0.054,0.009-0.086,0.025
		c-0.035,0.018-0.059,0.031-0.07,0.042h-0.033h-0.032c0-0.034-0.01-0.11-0.027-0.229c-0.017-0.12-0.036-0.191-0.06-0.214
		c-0.058-0.138-0.146-0.188-0.266-0.154c-0.117,0.034-0.229,0.052-0.332,0.052v0.119c-0.148,0-0.292-0.065-0.429-0.197
		c-0.136-0.13-0.216-0.27-0.239-0.418c-0.012,0.013-0.032,0.029-0.066,0.052c-0.035,0.023-0.063,0.034-0.086,0.034l-0.033-0.034
		c-0.025-0.022-0.035-0.039-0.035-0.052c-0.058-0.09-0.087-0.17-0.095-0.237c-0.006-0.069,0.003-0.159,0.026-0.274
		c-0.068,0.046-0.129,0.083-0.182,0.112c-0.05,0.027-0.115,0.042-0.196,0.042c-0.125,0-0.176-0.062-0.152-0.188
		c0.022-0.125,0.034-0.228,0.034-0.308c-0.034,0-0.099-0.012-0.188-0.034c-0.091-0.023-0.136,0.028-0.136,0.153
		c0,0.022,0.024,0.06,0.075,0.11c0.053,0.051,0.077,0.088,0.077,0.111c0,0.013-0.021,0.046-0.061,0.103
		c-0.04,0.059-0.071,0.098-0.093,0.119h-0.036h-0.034c-0.021-0.021-0.038-0.062-0.05-0.119c-0.011-0.057-0.024-0.09-0.034-0.103
		c-0.013-0.01-0.046-0.022-0.104-0.033c-0.058-0.012-0.097-0.022-0.119-0.034c-0.147-0.091-0.258-0.206-0.324-0.342
		c-0.07-0.137-0.112-0.272-0.128-0.41c-0.018-0.137-0.023-0.254-0.018-0.351c0.006-0.096,0.002-0.146-0.01-0.146l-0.223,0.035
		l-0.034,0.018c-0.011,0.011-0.025,0.036-0.041,0.076c-0.017,0.04-0.033,0.065-0.044,0.076c0,0.013-0.007,0.018-0.017,0.018
		c-0.013,0.012-0.022,0.018-0.034,0.018c0-0.147-0.023-0.259-0.069-0.334c-0.045-0.073-0.103-0.142-0.171-0.205
		c-0.067-0.062-0.136-0.125-0.204-0.188s-0.125-0.156-0.17-0.282c0-0.022-0.004-0.09-0.009-0.204
		c-0.007-0.114-0.009-0.183-0.009-0.206c0-0.33,0.056-0.604,0.171-0.821c0.111-0.216,0.235-0.415,0.366-0.597
		c0.132-0.183,0.254-0.356,0.366-0.521c0.115-0.165,0.173-0.361,0.173-0.59h0.545c0-0.034-0.006-0.074-0.018-0.121
		c-0.011-0.045-0.018-0.091-0.018-0.136s0.014-0.085,0.034-0.12c0.024-0.032,0.068-0.051,0.139-0.051
		c0.066,0,0.133,0.061,0.194,0.18c0.062,0.119,0.164,0.18,0.301,0.18v0.171c0.045,0,0.073,0.003,0.085,0.009
		c0.011,0.005,0.027-0.02,0.052-0.078v-0.733c0-0.022,0.012-0.052,0.034-0.087c0.021-0.033,0.039-0.057,0.053-0.066
		c0.102,0,0.178,0.028,0.229,0.085c0.051,0.056,0.091,0.122,0.118,0.196c0.029,0.073,0.052,0.152,0.069,0.238
		c0.017,0.085,0.047,0.162,0.093,0.231c0.068-0.012,0.104-0.063,0.104-0.154c0-0.09,0-0.143,0-0.152
		c0-0.194-0.043-0.311-0.128-0.352c-0.087-0.04-0.227-0.123-0.42-0.249v-0.063h0.599c0.045,0,0.083,0.021,0.11,0.067
		s0.049,0.098,0.061,0.155c0.012,0.057,0.021,0.113,0.024,0.17c0.007,0.057,0.009,0.104,0.009,0.137h0.24l0.153-0.375l0.443,0.223
		c0.045-0.114,0.12-0.17,0.222-0.17c0.094,0,0.14,0.032,0.14,0.103c0,0.068,0.026,0.114,0.084,0.136
		c0.01,0.023,0.033,0.018,0.068-0.017c0.012-0.011,0.021-0.018,0.032-0.018v-0.29c0.012,0.011,0.03,0.017,0.053,0.017
		c0.011,0,0.022,0.003,0.034,0.009c0.011,0.005,0.022,0.008,0.033,0.008c0.058,0.023,0.086,0.068,0.086,0.137
		c0,0.058-0.015,0.103-0.042,0.137c-0.028,0.034-0.044,0.08-0.044,0.137v0.033l0.068,0.069h0.033c0.092,0,0.141-0.059,0.146-0.171
		c0.007-0.114,0.009-0.188,0.009-0.223c0.08,0,0.168,0.037,0.267,0.111c0.096,0.074,0.168,0.145,0.214,0.213
		c0.011-0.011,0.036-0.036,0.074-0.077c0.039-0.04,0.082-0.077,0.13-0.11c0.045-0.034,0.088-0.065,0.128-0.094
		c0.039-0.028,0.063-0.043,0.076-0.043c0.091,0,0.159,0.037,0.206,0.111c0.045,0.074,0.076,0.159,0.095,0.256
		c0.017,0.097,0.024,0.191,0.024,0.282s0.005,0.153,0.019,0.188c0.011,0.023,0.048,0.061,0.11,0.111
		c0.062,0.052,0.1,0.089,0.11,0.111v0.034c0,0.012,0.005,0.023,0.017,0.034c0,0.013-0.003,0.025-0.01,0.042
		c-0.005,0.019-0.007,0.032-0.007,0.042c0,0.023-0.009,0.075-0.025,0.154c-0.018,0.08-0.032,0.132-0.044,0.154h-0.035
		c-0.057,0-0.093-0.015-0.109-0.042c-0.018-0.028-0.033-0.061-0.05-0.095c-0.019-0.033-0.05-0.064-0.095-0.094
		c-0.047-0.028-0.134-0.042-0.257-0.042c-0.012,0.023-0.022,0.04-0.034,0.051c-0.022,0.035-0.029,0.059-0.018,0.068
		c0.013,0.012,0.049,0.023,0.11,0.035c0.062,0.011,0.101,0.022,0.11,0.034c0.046,0.022,0.074,0.054,0.087,0.094
		c0.012,0.039,0.022,0.08,0.033,0.119c0.012,0.04,0.027,0.074,0.05,0.103c0.023,0.028,0.069,0.043,0.141,0.043
		c0,0.045-0.025,0.084-0.07,0.119c-0.046,0.034-0.099,0.067-0.162,0.104c-0.062,0.033-0.117,0.07-0.162,0.11
		c-0.047,0.041-0.068,0.095-0.068,0.162c0,0.091,0.028,0.154,0.086,0.188c0.058,0.032,0.085,0.097,0.085,0.188
		c-0.011,0.023-0.018,0.039-0.018,0.051v0.069c-0.011-0.035-0.042-0.072-0.094-0.111c-0.051-0.04-0.108-0.083-0.171-0.128
		s-0.126-0.083-0.188-0.11c-0.062-0.028-0.109-0.043-0.144-0.043c-0.046,0-0.079,0.015-0.096,0.043
		c-0.016,0.027-0.048,0.043-0.095,0.043h-0.033c-0.021-0.012-0.055-0.038-0.095-0.077c-0.041-0.04-0.086-0.085-0.136-0.137
		c-0.052-0.052-0.097-0.097-0.138-0.138c-0.039-0.04-0.065-0.07-0.077-0.094c-0.033-0.035-0.054-0.071-0.061-0.112
		c-0.006-0.04-0.01-0.082-0.017-0.127c-0.006-0.046-0.017-0.081-0.035-0.103c-0.018-0.023-0.054-0.035-0.109-0.035
		c-0.057,0-0.16,0.009-0.309,0.026c-0.147,0.017-0.305,0.033-0.469,0.051c-0.167,0.018-0.322,0.032-0.472,0.042
		c-0.147,0.012-0.25,0.022-0.308,0.034c-0.16,0.012-0.275,0.038-0.35,0.076c-0.076,0.041-0.128,0.098-0.164,0.172
		c-0.033,0.073-0.064,0.159-0.093,0.257c-0.028,0.097-0.077,0.202-0.146,0.314c-0.08-0.022-0.104-0.045-0.075-0.067
		c0.029-0.023,0.043-0.045,0.043-0.069c-0.08,0-0.15-0.006-0.214-0.017c-0.062-0.012-0.113-0.016-0.152-0.01
		c-0.041,0.007-0.069,0.034-0.088,0.085c-0.018,0.052-0.025,0.141-0.025,0.266s0.053,0.188,0.155,0.188
		c0.077,0,0.12-0.043,0.129-0.128c0.005-0.086,0.041-0.129,0.109-0.129c0,0.069,0.009,0.163,0.025,0.282
		c0.018,0.12,0.046,0.237,0.085,0.35c0.04,0.114,0.094,0.214,0.164,0.299c0.065,0.087,0.146,0.129,0.238,0.129h-0.018
		c-0.023,0.011-0.041,0.021-0.054,0.033c-0.01,0.013-0.016,0.023-0.016,0.035c0,0.011-0.007,0.018-0.017,0.018v0.066
		c0,0.069,0.034,0.115,0.11,0.139c0.073,0.022,0.146,0.049,0.222,0.076c0.074,0.028,0.136,0.071,0.188,0.128
		c0.05,0.057,0.053,0.143,0.008,0.257c0.021-0.045,0.074-0.069,0.152-0.069c0.093,0,0.15,0.031,0.181,0.095
		c0.027,0.062,0.052,0.127,0.068,0.196s0.042,0.134,0.076,0.197c0.035,0.062,0.099,0.094,0.188,0.094h0.067
		c-0.057-0.057-0.088-0.12-0.094-0.188c-0.006-0.067-0.01-0.131-0.01-0.188s-0.016-0.111-0.05-0.162
		c-0.035-0.051-0.104-0.094-0.205-0.129c0.021-0.011,0.049-0.018,0.076-0.018s0.048,0,0.062,0c0.09,0,0.176,0.028,0.255,0.086
		c0.079,0.057,0.16,0.118,0.24,0.188c0.078,0.068,0.155,0.137,0.229,0.205c0.076,0.068,0.157,0.114,0.249,0.137
		c0.069,0.022,0.159,0.051,0.274,0.085c0.112,0.034,0.169,0.057,0.169,0.068l0.377,0.734c0-0.023,0.008-0.061,0.025-0.11
		c0.019-0.052,0.03-0.089,0.044-0.112l0.016-0.017h0.019h0.017l0.019,0.017c0.104,0.161,0.182,0.336,0.238,0.53l0.136-0.086
		c-0.045,0.114-0.055,0.237-0.031,0.368c0.021,0.131,0.063,0.253,0.128,0.366c0.062,0.114,0.146,0.214,0.246,0.3
		c0.104,0.085,0.213,0.14,0.325,0.162c0.08,0.103,0.153,0.213,0.222,0.333c0.067,0.12,0.104,0.241,0.104,0.367
		c0,0.068-0.055,0.162-0.162,0.282c-0.107,0.119-0.208,0.162-0.3,0.128c0.092,0.125,0.138,0.273,0.138,0.444
		c0,0.068-0.017,0.174-0.044,0.316c-0.026,0.143-0.1,0.214-0.214,0.214h-0.031c-0.014-0.012-0.036-0.022-0.069-0.034
		c-0.034-0.013-0.062-0.029-0.086-0.052v0.052v0.034c0.011,0.046,0.029,0.113,0.052,0.205c0.022,0.091,0.034,0.147,0.034,0.171
		l0.069,0.067c-0.023,0.022-0.055,0.061-0.087,0.111c-0.034,0.051-0.059,0.088-0.068,0.11c-0.057,0.113-0.103,0.183-0.137,0.206
		c-0.033,0.022-0.087,0.079-0.153,0.17c0.035,0.058,0.084,0.085,0.153,0.085v0.223c-0.103,0-0.19-0.043-0.267-0.128
		c-0.073-0.086-0.148-0.128-0.229-0.128l-0.033,0.017l-0.154,0.821c0,0.021-0.023,0.044-0.068,0.067h-0.034
		c-0.045,0-0.076-0.018-0.093-0.052c-0.019-0.035-0.03-0.068-0.035-0.103c-0.005-0.035-0.017-0.068-0.025-0.104
		c-0.012-0.034-0.039-0.051-0.085-0.051c-0.104,0-0.166,0.042-0.189,0.128c-0.021,0.085-0.04,0.174-0.05,0.266h-0.085
		c-0.091,0-0.167-0.05-0.222-0.146c-0.06-0.097-0.104-0.174-0.137-0.23c-0.058,0.012-0.088,0.034-0.088,0.068s0,0.074,0,0.119
		c0,0.058,0.016,0.095,0.044,0.111c0.027,0.017,0.044,0.054,0.044,0.11c0,0.059-0.009,0.117-0.02,0.18s-0.056,0.095-0.137,0.095
		c-0.011,0-0.023-0.004-0.033-0.01c-0.012-0.005-0.03-0.008-0.053-0.008c0.021-0.022,0.021-0.072,0-0.146
		c-0.023-0.073-0.045-0.122-0.068-0.144h-0.05h-0.035c-0.01,0-0.017-0.007-0.017-0.019c-0.058,0-0.117,0.003-0.181,0.008
		c-0.062,0.005-0.093,0.043-0.093,0.111v0.035c0.01,0.01,0.036,0.024,0.076,0.042c0.039,0.017,0.062,0.031,0.076,0.043l0.019,0.016
		c0,0.012,0.005,0.017,0.018,0.017c-0.115,0-0.185,0.013-0.205,0.036c-0.023,0.022-0.027,0.05-0.019,0.086
		c0.013,0.033,0.021,0.075,0.026,0.127c0.005,0.051-0.015,0.104-0.062,0.16c-0.012,0.014-0.057,0.023-0.138,0.036
		c-0.078,0.011-0.131,0.022-0.153,0.034c-0.022,0-0.041,0.022-0.051,0.068c-0.012,0.045-0.021,0.074-0.035,0.086
		c0,0.011-0.004,0.016-0.018,0.016h-0.05c-0.092,0-0.154-0.029-0.188-0.093s-0.107-0.093-0.224-0.093
		c-0.022,0-0.057,0.002-0.103,0.007c-0.047,0.006-0.074,0.009-0.086,0.009c-0.011,0-0.033,0.025-0.065,0.077
		c-0.035,0.05-0.064,0.077-0.087,0.077c-0.023,0-0.061-0.027-0.112-0.077c-0.05-0.052-0.087-0.077-0.11-0.077
		c-0.021-0.012-0.064-0.025-0.129-0.043c-0.062-0.016-0.128-0.041-0.195-0.069c-0.067-0.027-0.134-0.05-0.195-0.067
		C124.058,37.748,124.01,37.734,123.976,37.723z M123.018,27.915c-0.046,0-0.067,0.022-0.067,0.068c0,0.045,0.021,0.068,0.067,0.068
		c0.034,0,0.052-0.023,0.052-0.068C123.069,27.939,123.052,27.915,123.018,27.915z M123.36,29.18c0,0.058,0.023,0.094,0.077,0.111
		c0.051,0.017,0.104,0.025,0.162,0.025c0.09,0,0.155-0.014,0.195-0.043c0.041-0.027,0.062-0.088,0.062-0.179
		c0-0.022-0.003-0.062-0.01-0.119c-0.007-0.058-0.035-0.091-0.095-0.103c0.035,0.057,0.037,0.104,0.009,0.145
		c-0.027,0.04-0.066,0.071-0.118,0.094c-0.053,0.023-0.104,0.041-0.154,0.053C123.438,29.174,123.395,29.18,123.36,29.18z
		 M123.532,29.624c0.033,0.057,0.085,0.085,0.153,0.085v-0.085H123.532z M123.821,29.453c0.115,0,0.18,0.062,0.198,0.188
		c0.017,0.125,0.023,0.217,0.023,0.274c0.124-0.092,0.198-0.224,0.214-0.394c0.017-0.171,0.024-0.318,0.024-0.443
		c0-0.023,0-0.043,0-0.062c0-0.017-0.028-0.037-0.084-0.06c0.022,0.125-0.008,0.228-0.085,0.308
		c-0.081,0.079-0.177,0.125-0.292,0.136L123.821,29.453L123.821,29.453z M124.044,30.803c-0.033,0-0.052,0.025-0.052,0.077
		c0,0.051,0.019,0.077,0.052,0.077c0.045,0,0.069-0.026,0.069-0.077S124.089,30.803,124.044,30.803z M124.044,30.581
		c-0.021-0.012-0.033,0-0.033,0.033c0,0.034,0.012,0.052,0.033,0.052c0.022-0.012,0.033-0.028,0.033-0.052
		C124.077,30.592,124.067,30.581,124.044,30.581z M124.198,37.502h0.084v-0.068h-0.084V37.502z M124.419,26.787
		c-0.057,0.058-0.084,0.108-0.084,0.153h0.084V26.787z M124.506,36.903c0.011-0.022,0-0.033-0.035-0.033
		c-0.032,0-0.052,0.011-0.052,0.033c0.013,0.022,0.029,0.034,0.052,0.034C124.494,36.937,124.506,36.926,124.506,36.903z
		 M124.506,30.889h0.068v-0.085L124.506,30.889z M124.795,37.279c-0.136,0-0.221,0.023-0.255,0.069
		c-0.034,0.045-0.029,0.093,0.018,0.146c0.045,0.051,0.128,0.1,0.247,0.145s0.267,0.068,0.437,0.068c0.01,0,0-0.022-0.035-0.068
		c-0.032-0.045-0.079-0.093-0.135-0.145c-0.061-0.053-0.115-0.1-0.172-0.146C124.841,37.302,124.808,37.279,124.795,37.279z
		 M124.557,27.83c0,0.113,0.057,0.171,0.171,0.171V27.83H124.557z M124.642,37.655c-0.034,0-0.051,0.026-0.051,0.077
		c0,0.052,0.017,0.077,0.051,0.077c0.045,0,0.067-0.025,0.067-0.077C124.71,37.681,124.687,37.655,124.642,37.655z M124.728,27.607
		h0.137v-0.067h-0.137V27.607z M124.795,27.01c-0.032,0-0.05,0.025-0.05,0.076c0,0.052,0.018,0.078,0.05,0.078
		c0.035,0,0.055-0.026,0.055-0.078C124.849,27.035,124.83,27.01,124.795,27.01z M124.951,31.179c0,0.023,0.008,0.06,0.023,0.11
		c0.017,0.052,0.031,0.089,0.043,0.11c0.057-0.021,0.092-0.073,0.102-0.152c0.013-0.08,0.018-0.132,0.018-0.155
		c-0.032,0-0.072,0.007-0.118,0.018C124.972,31.123,124.951,31.145,124.951,31.179z M124.951,37.058c0,0.079,0.021,0.13,0.066,0.153
		c0-0.012,0.002-0.026,0.009-0.042c0.006-0.019,0.008-0.032,0.008-0.043c0-0.067-0.027-0.113-0.083-0.137V37.058z M125.018,30.666
		c-0.034,0-0.053,0.023-0.053,0.068s0.019,0.068,0.053,0.068s0.053-0.023,0.053-0.068S125.052,30.666,125.018,30.666z
		 M125.462,35.57c-0.021,0.022-0.091,0.074-0.204,0.153c-0.114,0.08-0.17,0.137-0.17,0.171l0.528,0.153L125.462,35.57z
		 M125.24,26.873c-0.022-0.012-0.035-0.003-0.035,0.024c0,0.028,0.013,0.042,0.035,0.042c0.022-0.011,0.035-0.024,0.035-0.042
		C125.276,26.881,125.263,26.873,125.24,26.873z M125.462,31.845h0.104c0-0.045-0.035-0.091-0.104-0.137V31.845z M126.061,31.401
		c-0.022-0.011-0.035,0-0.035,0.034c0,0.035,0.013,0.052,0.035,0.052C126.116,31.429,126.116,31.401,126.061,31.401z
		 M126.402,26.036c-0.079,0-0.133,0.031-0.155,0.094c-0.021,0.062-0.032,0.123-0.032,0.18v0.12c0.045-0.023,0.104-0.063,0.179-0.12
		c0.073-0.058,0.11-0.12,0.11-0.188c0-0.045-0.021-0.069-0.066-0.069L126.402,26.036z M126.282,31.401h0.068v-0.067h-0.068V31.401z
		 M126.504,30.666c-0.033,0-0.05,0.023-0.05,0.068s0.017,0.068,0.05,0.068c0.035,0,0.052-0.023,0.052-0.068
		S126.539,30.666,126.504,30.666z M126.47,32.067c0,0.059,0.037,0.099,0.111,0.12c0.073,0.023,0.121,0.034,0.146,0.034
		c0.022-0.011,0.045-0.034,0.067-0.068c0.022-0.033,0.029-0.062,0.02-0.086H126.47z M126.504,36.544l0.068-0.085h-0.068V36.544z
		 M126.572,30.889h0.086l-0.086-0.085V30.889z M126.658,31.776l0.068-0.067h-0.154L126.658,31.776z M126.727,31.265
		c-0.034,0-0.052,0.022-0.052,0.068s0.018,0.067,0.052,0.067c0.045,0,0.067-0.021,0.067-0.067S126.772,31.265,126.727,31.265z
		 M126.814,32.29c-0.07,0.057-0.104,0.107-0.104,0.152h0.104V32.29z M127.036,36.459c-0.081,0-0.133,0.028-0.156,0.085h0.224
		C127.103,36.488,127.081,36.459,127.036,36.459z M126.95,31.845h0.117c0-0.034-0.004-0.074-0.017-0.12
		c-0.012-0.045-0.047-0.079-0.102-0.103L126.95,31.845L126.95,31.845z M127.136,30.94c-0.033,0-0.061,0.022-0.075,0.068
		c-0.019,0.046-0.032,0.097-0.042,0.154c-0.015,0.058-0.02,0.109-0.02,0.161s0,0.083,0,0.095c0.067,0,0.131-0.023,0.188-0.068
		c0.056-0.046,0.086-0.103,0.086-0.171c0-0.035-0.011-0.083-0.026-0.146C127.232,30.971,127.193,30.94,127.136,30.94z
		 M127.103,32.443h0.068l-0.068-0.223V32.443z M127.172,25.984c-0.035,0-0.053,0.022-0.053,0.068s0.018,0.069,0.053,0.069
		c0.044,0,0.067-0.023,0.067-0.069C127.239,26.007,127.216,25.984,127.172,25.984z M127.479,31.11c-0.023-0.022-0.034,0-0.034,0.069
		c0,0.068,0.011,0.097,0.034,0.085C127.524,31.185,127.524,31.133,127.479,31.11z M127.461,33.042c0,0.091,0.021,0.188,0.062,0.291
		c0.04,0.103,0.123,0.152,0.247,0.152h0.068c0.033-0.011,0.1-0.022,0.196-0.033c0.096-0.012,0.156-0.022,0.18-0.035
		c0.012-0.012,0.018-0.022,0.018-0.034c0-0.045-0.018-0.072-0.052-0.077s-0.069-0.011-0.102-0.017
		c-0.036-0.007-0.07-0.021-0.104-0.043c-0.035-0.022-0.053-0.069-0.053-0.138c-0.081,0.058-0.133,0.083-0.163,0.077
		c-0.027-0.005-0.088-0.009-0.179-0.009c0-0.09,0.015-0.159,0.043-0.205c0.028-0.045-0.02-0.097-0.146-0.153
		c0,0.022-0.002,0.061-0.009,0.11C127.464,32.982,127.461,33.019,127.461,33.042z M127.546,34.818c-0.021-0.011-0.032,0-0.032,0.034
		c0,0.035,0.011,0.052,0.032,0.052c0.023-0.012,0.035-0.028,0.035-0.052C127.581,34.83,127.569,34.818,127.546,34.818z
		 M127.615,32.067c0.011-0.021,0.002-0.033-0.026-0.033c-0.026,0-0.043,0.012-0.043,0.033c0.015,0.024,0.026,0.035,0.043,0.035
		C127.607,32.102,127.615,32.091,127.615,32.067z M127.615,34.528c-0.034,0-0.052,0.026-0.052,0.077s0.018,0.077,0.052,0.077
		c0.046,0,0.068-0.025,0.068-0.077S127.661,34.528,127.615,34.528z M127.701,32.29c0,0.103,0.046,0.182,0.137,0.238v-0.393
		C127.747,32.136,127.701,32.187,127.701,32.29z M127.769,26.207c-0.034,0-0.053,0.022-0.053,0.067s0.019,0.068,0.053,0.068
		c0.033,0,0.052-0.023,0.052-0.068S127.802,26.207,127.769,26.207z M127.769,31.845c0.033,0.068,0.087,0.103,0.153,0.103v-0.103
		H127.769z M128.317,32.478c-0.126,0-0.238,0.026-0.342,0.077c-0.104,0.051-0.154,0.146-0.154,0.281
		c0.091,0,0.196-0.031,0.314-0.093C128.255,32.68,128.317,32.591,128.317,32.478z M128.061,26.873h0.103
		c0-0.068-0.036-0.12-0.103-0.154V26.873z M128.145,32.29h0.068l-0.068-0.069V32.29z M128.214,34.084h0.085V33.93h-0.085V34.084z
		 M128.899,34.51c-0.06,0-0.112,0.018-0.164,0.052c-0.05,0.034-0.101,0.074-0.146,0.119h0.104
		C128.828,34.682,128.899,34.626,128.899,34.51z M128.743,34.152c0.057-0.033,0.085-0.08,0.085-0.137h-0.085V34.152z
		 M128.813,33.333c-0.023-0.013-0.036,0-0.036,0.032c0,0.035,0.013,0.052,0.036,0.052c0.021-0.012,0.031-0.028,0.031-0.052
		C128.844,33.343,128.835,33.333,128.813,33.333z M128.88,33.639c-0.035,0-0.052,0.023-0.052,0.068c0,0.046,0.017,0.068,0.052,0.068
		c0.046,0,0.067-0.021,0.067-0.068C128.947,33.662,128.926,33.639,128.88,33.639z"/>
	<path fill="#FFFFFF" d="M132.691,41.567c0.079,0,0.137,0.021,0.172,0.062c0.032,0.039,0.117,0.059,0.254,0.059
		c0-0.09-0.048-0.169-0.145-0.238c-0.099-0.067-0.156-0.152-0.181-0.255c-0.021-0.092-0.021-0.157,0-0.197
		c0.023-0.04,0-0.101-0.066-0.18c0.283-0.092,0.547-0.291,0.784-0.599c0.24-0.308,0.359-0.66,0.359-1.06
		c0-0.204-0.008-0.449-0.026-0.734c-0.018-0.286-0.109-0.512-0.279-0.684c-0.013-0.022-0.035-0.037-0.069-0.042
		c-0.035-0.006-0.063-0.016-0.085-0.025c-0.035-0.035-0.052-0.078-0.052-0.128c0-0.051-0.003-0.104-0.01-0.153
		c-0.004-0.051-0.019-0.097-0.033-0.137c-0.016-0.04-0.055-0.061-0.11-0.061v-0.632c-0.07,0-0.133,0.005-0.188,0.018
		c-0.058,0.012-0.105,0.017-0.146,0.017s-0.074-0.011-0.104-0.034c-0.027-0.021-0.041-0.074-0.041-0.154
		c0-0.067,0.005-0.122,0.018-0.161c0.011-0.041,0.057-0.078,0.136-0.112c-0.068,0.023-0.125,0.017-0.171-0.017
		c-0.045-0.034-0.081-0.077-0.11-0.129c-0.028-0.051-0.052-0.107-0.068-0.17c-0.018-0.062-0.031-0.104-0.043-0.128v-0.034v-0.053
		c0.012-0.022,0.028-0.062,0.053-0.12c0.022-0.057,0.033-0.091,0.033-0.103v-0.051v-0.034c-0.011-0.011-0.036-0.037-0.076-0.078
		c-0.04-0.04-0.065-0.071-0.078-0.094v-0.018c0-0.057,0.023-0.128,0.068-0.213c0.046-0.085,0.075-0.156,0.086-0.214v-0.034v-0.035
		c0-0.021-0.011-0.1-0.033-0.229c-0.022-0.131-0.041-0.208-0.053-0.231v-0.068v-0.085c0-0.035,0.006-0.089,0.018-0.163
		c0.013-0.074,0.023-0.151,0.035-0.23c0.011-0.08,0.02-0.157,0.025-0.23c0.005-0.073,0.008-0.122,0.008-0.145
		c0.012-0.058,0.021-0.146,0.035-0.265c0.01-0.12,0.021-0.181,0.034-0.181h0.255v-0.034c0-0.022,0.006-0.039,0.018-0.051
		l0.034-0.068c-0.011-0.012-0.037-0.026-0.077-0.043c-0.04-0.018-0.065-0.03-0.077-0.042v-0.05v-0.103
		c0-0.012,0.007-0.043,0.018-0.094c0.013-0.052,0.022-0.108,0.035-0.172c0.011-0.062,0.021-0.119,0.024-0.17
		c0.005-0.053,0.009-0.083,0.009-0.095v-0.051v-0.035c-0.022-0.033-0.062-0.106-0.119-0.222c-0.059-0.113-0.097-0.187-0.118-0.222
		c-0.024,0-0.044-0.002-0.061-0.009c-0.018-0.005-0.032-0.009-0.043-0.009c-0.012,0-0.023,0.003-0.035,0.009
		c-0.012,0.007-0.022,0.009-0.034,0.009h-0.052c-0.021,0.012-0.046,0.035-0.066,0.067c-0.022,0.034-0.027,0.059-0.019,0.069
		c-0.01-0.023-0.017-0.041-0.017-0.051v-0.051c0-0.092,0.031-0.175,0.096-0.248c0.06-0.074,0.092-0.157,0.092-0.248l-0.018-0.034
		v-0.034c-0.01,0-0.036,0.011-0.074,0.034c-0.042,0.022-0.067,0.034-0.079,0.034h-0.017h-0.053
		c-0.012-0.022-0.023-0.073-0.042-0.153c-0.018-0.08-0.031-0.131-0.044-0.155v-0.033v-0.033c0.013-0.012,0.028-0.026,0.054-0.043
		c0.021-0.018,0.032-0.031,0.032-0.043c0.013-0.012,0.016-0.049,0.01-0.111s-0.01-0.101-0.01-0.111
		c0.022-0.091,0.066-0.222,0.13-0.394c0.062-0.17,0.121-0.296,0.179-0.375c0.012-0.012,0.039-0.034,0.085-0.069
		c0.045-0.034,0.069-0.062,0.069-0.084c0.012-0.035,0.018-0.111,0.018-0.23c0-0.12-0.006-0.191-0.018-0.215
		c0.159-0.045,0.271-0.13,0.342-0.255c0.065-0.125,0.13-0.245,0.188-0.358c0.011-0.023,0.036-0.065,0.074-0.129
		c0.042-0.062,0.067-0.1,0.079-0.111v-0.034c0-0.012,0.002-0.018,0.008-0.018c0.005,0,0.01-0.005,0.01-0.018
		c0-0.056-0.01-0.099-0.025-0.128c-0.018-0.027-0.036-0.06-0.061-0.093h0.118c0-0.023,0.004-0.066,0.011-0.129
		c0.006-0.062,0.008-0.105,0.008-0.127c0-0.012-0.012-0.023-0.033-0.035c-0.024-0.01-0.034-0.022-0.034-0.034
		c-0.012-0.012-0.018-0.022-0.018-0.034V27.25c0-0.022,0.002-0.048,0.009-0.076c0.007-0.029,0.009-0.049,0.009-0.061
		c0.01-0.011,0.025-0.06,0.044-0.146c0.017-0.085,0.023-0.134,0.023-0.146s-0.004-0.036-0.019-0.076
		c-0.01-0.039-0.028-0.061-0.05-0.061c0.057-0.021,0.133-0.06,0.229-0.111c0.097-0.051,0.146-0.115,0.146-0.195
		c0-0.013-0.012-0.029-0.034-0.051c-0.023-0.023-0.035-0.04-0.035-0.052c-0.011-0.012-0.011-0.037,0-0.077
		c0.012-0.039,0.012-0.065,0-0.076c-0.011,0-0.054-0.007-0.128-0.019c-0.072-0.011-0.11-0.021-0.11-0.034v-0.119
		c0-0.092,0.016-0.183,0.043-0.273c0.026-0.092,0.044-0.194,0.044-0.308v-0.239c0-0.011-0.018-0.035-0.044-0.068
		c-0.027-0.033-0.043-0.062-0.043-0.085v-0.615c-0.021-0.159-0.059-0.308-0.104-0.443c-0.046-0.138-0.159-0.233-0.341-0.291
		c-0.183-0.068-0.354-0.114-0.512-0.137c-0.161-0.022-0.326-0.033-0.496-0.033c-0.06,0-0.124-0.003-0.197-0.01
		c-0.074-0.005-0.133,0.021-0.179,0.077c0.01-0.034,0.006-0.07-0.019-0.11c-0.021-0.04-0.039-0.071-0.051-0.095
		c-0.023,0.023-0.074,0.074-0.155,0.154c-0.079,0.08-0.13,0.13-0.152,0.153c-0.012,0.012-0.022,0.017-0.033,0.017h-0.052
		c-0.113,0-0.171-0.062-0.171-0.188v-0.052c0-0.012,0.006-0.021,0.016-0.033c0.022,0,0.042-0.007,0.053-0.018
		c0.011-0.012,0.021-0.018,0.026-0.018c0.005,0,0.014-0.005,0.023-0.018c0-0.033,0.006-0.085,0.019-0.152
		c0.01-0.069,0.031-0.142,0.06-0.215c0.029-0.073,0.061-0.137,0.096-0.188c0.033-0.051,0.079-0.077,0.136-0.077l0.052,0.019
		c0,0.011,0.012,0.023,0.034,0.042c0.021,0.017,0.039,0.024,0.052,0.024h0.017c0.068,0,0.12-0.034,0.152-0.103
		c0.035-0.067,0.054-0.125,0.054-0.17v-0.018c-0.013-0.012-0.026-0.04-0.044-0.086c-0.018-0.045-0.025-0.074-0.025-0.086
		c-0.011,0-0.017-0.005-0.017-0.016V22.26c0.092,0,0.146-0.057,0.172-0.171c0.011,0,0.035-0.002,0.074-0.009
		c0.042-0.006,0.072-0.009,0.096-0.009c0.068,0,0.116,0.006,0.146,0.018s0.053,0.022,0.068,0.035
		c0.016,0.011,0.034,0.022,0.052,0.033c0.017,0.013,0.047,0.018,0.093,0.018h0.068c0.036-0.012,0.125-0.028,0.273-0.051
		c0.148-0.023,0.238-0.035,0.273-0.035h0.034h0.035c0.01,0,0.022,0.014,0.042,0.043c0.017,0.028,0.03,0.042,0.043,0.042h0.101h0.121
		c0.021,0.011,0.04,0.032,0.05,0.06c0.015,0.028,0.019,0.055,0.019,0.076h0.411c0,0.092-0.022,0.18-0.069,0.265
		c-0.045,0.086-0.079,0.175-0.104,0.266v0.051v0.018c0.023,0.022,0.037,0.046,0.044,0.068c0.005,0.023,0.015,0.034,0.025,0.034
		c0.057,0,0.107-0.025,0.152-0.077c0.047-0.051,0.074-0.104,0.085-0.163c0.022,0,0.056,0.021,0.097,0.061
		c0.038,0.041,0.059,0.065,0.059,0.077c0,0.022-0.014,0.065-0.042,0.128c-0.029,0.062-0.043,0.1-0.043,0.11s-0.003,0.04-0.009,0.086
		c-0.006,0.045-0.008,0.079-0.008,0.103c0,0.022,0.002,0.057,0.008,0.102c0.006,0.046,0.037,0.074,0.094,0.086l0.068-0.067h0.052
		h0.019c0.021,0.092,0.045,0.201,0.067,0.333c0.022,0.13,0.078,0.226,0.17,0.281c0.068-0.056,0.116-0.122,0.146-0.195
		c0.029-0.075,0.082-0.141,0.161-0.197c0.069,0.057,0.116,0.122,0.146,0.197c0.027,0.073,0.081,0.14,0.161,0.195
		c0.012,0,0.037,0.013,0.077,0.035c0.039,0.023,0.065,0.04,0.076,0.051v0.069c0,0.125-0.015,0.239-0.043,0.342
		c-0.027,0.103-0.043,0.205-0.043,0.308v0.034c0,0.012,0.013,0.039,0.035,0.086c0.021,0.045,0.04,0.073,0.051,0.085v0.016v0.035
		c-0.011,0.011-0.037,0.04-0.076,0.086c-0.04,0.045-0.065,0.066-0.077,0.066v0.035c0,0.08,0.012,0.151,0.034,0.213
		c0.023,0.063,0.033,0.124,0.033,0.181v0.103c-0.01,0.023-0.033,0.046-0.067,0.068c-0.034,0.021-0.062,0.034-0.087,0.034
		c0.081,0.272,0.03,0.495-0.151,0.666c-0.012,0.012-0.038,0.025-0.078,0.043c-0.038,0.018-0.06,0.037-0.06,0.06
		c-0.012,0-0.027,0.021-0.052,0.061c-0.022,0.04-0.033,0.064-0.033,0.076c-0.022,0-0.059-0.006-0.103-0.017
		c-0.046-0.011-0.08-0.018-0.104-0.018c0,0.091,0.022,0.16,0.067,0.205c0.046,0.046,0.069,0.114,0.069,0.205
		c0,0.081-0.03,0.132-0.087,0.154l-0.237-0.239v0.394c0.045,0.022,0.091,0.046,0.136,0.068c0.046,0.023,0.081,0.058,0.103,0.104
		c-0.092,0.068-0.152,0.203-0.188,0.401c-0.033,0.198-0.05,0.351-0.05,0.452v0.12c0.021-0.022,0.05-0.048,0.085-0.077
		c0.033-0.027,0.062-0.048,0.086-0.06l0.017-0.018l0.033,0.018h0.019l-0.153,0.752c-0.093-0.035-0.161-0.021-0.206,0.042
		c-0.046,0.063-0.075,0.144-0.093,0.24c-0.019,0.097-0.025,0.189-0.025,0.282c0,0.092,0,0.152,0,0.188
		c0,0.057,0.002,0.134,0.008,0.23s0.009,0.15,0.009,0.162c0,0.022,0.01,0.051,0.026,0.086c0.017,0.033,0.035,0.057,0.06,0.066
		c0.022,0.014,0.048,0.009,0.076-0.007c0.028-0.017,0.049-0.026,0.062-0.026c0-0.022,0.002-0.043,0.008-0.06
		c0.005-0.017,0.002-0.037-0.008-0.06c0-0.012-0.013-0.037-0.035-0.077c-0.023-0.04-0.034-0.065-0.034-0.077
		c0-0.011,0.011-0.035,0.034-0.068c0.022-0.035,0.035-0.062,0.035-0.086l0.032-0.017c0.08,0,0.129,0.043,0.146,0.128
		s0.037,0.149,0.06,0.196h0.033h0.034c0.011-0.012,0.05-0.028,0.119-0.052c0.069-0.021,0.108-0.034,0.119-0.034
		c0.022,0,0.084,0.024,0.18,0.069c0.099,0.045,0.163,0.08,0.196,0.104c0.013,0,0.028,0.008,0.053,0.024
		c0.022,0.019,0.033,0.032,0.033,0.042c0,0.024-0.011,0.052-0.033,0.086c-0.023,0.034-0.04,0.058-0.053,0.068
		c0.013,0.011,0.021,0.017,0.035,0.017h0.051c0.058,0,0.101-0.017,0.128-0.052c0.028-0.034,0.072-0.051,0.128-0.051h0.12
		c-0.045,0.058-0.071,0.103-0.077,0.136c-0.005,0.035-0.008,0.08-0.008,0.136c0,0.093,0.031,0.152,0.094,0.181
		c0.063,0.028,0.093,0.07,0.093,0.128c-0.091,0-0.188,0.017-0.298,0.052c-0.107,0.034-0.195,0.08-0.266,0.136v0.086v0.067
		c-0.01,0.013-0.048,0.026-0.11,0.043s-0.1,0.025-0.109,0.025c-0.06,0.033-0.086,0.062-0.086,0.085
		c-0.012,0.022-0.021,0.085-0.025,0.188c-0.007,0.104-0.021,0.165-0.044,0.188c-0.011,0.022-0.06,0.042-0.146,0.06
		c-0.086,0.019-0.139,0.026-0.161,0.026c-0.067,0.022-0.108,0.074-0.12,0.152c-0.011,0.08-0.051,0.133-0.118,0.154
		c-0.069,0.023-0.138,0.038-0.206,0.043c-0.069,0.005-0.125,0.021-0.172,0.043c-0.045,0.022-0.082,0.061-0.111,0.11
		c-0.027,0.052-0.041,0.128-0.041,0.23c0,0.045,0.028,0.085,0.085,0.12c0.059,0.034,0.108,0.051,0.152,0.051
		c-0.031,0.068-0.079,0.117-0.135,0.146c-0.06,0.028-0.114,0.045-0.173,0.052c-0.056,0.005-0.112,0.014-0.171,0.024
		c-0.057,0.012-0.102,0.041-0.136,0.086c-0.012,0.011-0.007,0.04,0.018,0.085c0.022,0.045,0.032,0.081,0.032,0.103
		c0.015,0,0.026-0.006,0.043-0.017c0.019-0.011,0.037-0.019,0.062-0.019c0.021,0.013,0.062,0.035,0.118,0.069
		c0.058,0.034,0.092,0.063,0.104,0.086c-0.012,0.022-0.034,0.062-0.069,0.119c-0.033,0.058-0.062,0.098-0.085,0.12l-0.033,0.018
		l-0.033-0.018c-0.012,0-0.028-0.011-0.053-0.034c-0.022-0.022-0.034-0.04-0.034-0.051c-0.012,0.022-0.033,0.051-0.067,0.085
		c-0.035,0.034-0.058,0.058-0.068,0.069c0,0.012-0.013,0.04-0.034,0.085c-0.022,0.046-0.04,0.068-0.051,0.068
		c-0.022,0.012-0.059,0.003-0.104-0.025c-0.046-0.029-0.081-0.043-0.104-0.043c0,0.057-0.008,0.103-0.025,0.137
		c-0.019,0.034,0.01,0.062,0.079,0.085c0.021,0.012,0.072,0.025,0.152,0.042c0.079,0.018,0.131,0.026,0.153,0.026
		c0.021,0.022,0.054,0.041,0.093,0.051c0.04,0.011,0.078,0.027,0.111,0.051c0.047,0.023,0.092,0.041,0.138,0.051v0.599
		c0.012,0,0.028-0.006,0.05-0.018c0.023-0.011,0.047-0.021,0.069-0.034h0.035h0.032c0.013,0.013,0.025,0.034,0.043,0.069
		c0.018,0.033,0.032,0.062,0.042,0.085c0.014,0.023,0.022,0.08,0.035,0.171c0.01,0.091,0.023,0.148,0.034,0.171h0.479v0.018
		c0,0.011-0.007,0.018-0.017,0.018c0,0.011-0.013,0.028-0.035,0.051l-0.032,0.034c0,0.011,0.003,0.061,0.009,0.146
		c0.004,0.085,0.008,0.14,0.008,0.162c0.067,0,0.146,0.014,0.238,0.043c0.091,0.027,0.137,0.088,0.137,0.179
		c0,0.011-0.003,0.017-0.01,0.017c-0.004,0-0.008,0.006-0.008,0.018v0.017c0,0.023-0.011,0.069-0.033,0.137
		c-0.022,0.068-0.034,0.114-0.034,0.138c-0.012,0.033-0.016,0.077-0.009,0.128s0.009,0.104,0.009,0.162
		c0,0.057,0.007,0.12,0.019,0.188h0.289c-0.012,0.022-0.019,0.04-0.019,0.052v0.068l-0.065,0.137
		c-0.013,0.057-0.02,0.162-0.02,0.315s0.007,0.254,0.02,0.299c-0.06,0.012-0.135,0.038-0.231,0.077
		c-0.097,0.041-0.151,0.094-0.162,0.163l0.034,0.067c0.022,0.047,0.039,0.074,0.052,0.085l0.033,0.036
		c0.023,0.022,0.04,0.034,0.052,0.034v0.512c-0.16,0-0.23,0.035-0.214,0.104c0.02,0.068,0.026,0.146,0.026,0.239
		c0.09,0,0.145,0.007,0.161,0.024c0.018,0.019,0.025,0.083,0.025,0.196v0.153c0,0.011-0.016,0.045-0.043,0.103
		c-0.027,0.057-0.042,0.097-0.042,0.119c-0.013,0.023-0.024,0.086-0.043,0.188c-0.018,0.103-0.032,0.165-0.043,0.188
		c0,0.01-0.02,0.024-0.061,0.041c-0.039,0.019-0.064,0.032-0.075,0.043c-0.059,0.022-0.098,0.071-0.121,0.146
		c-0.021,0.073-0.062,0.109-0.119,0.109v-0.257h-0.067c0,0.035-0.013,0.124-0.033,0.266c-0.023,0.144-0.041,0.231-0.052,0.266
		c-0.025,0.033-0.063,0.125-0.119,0.272c-0.06,0.148-0.093,0.24-0.104,0.273c-0.011,0.012-0.028,0.046-0.052,0.103
		c-0.021,0.058-0.033,0.098-0.033,0.119c-0.091,0.046-0.162,0.083-0.214,0.111c-0.052,0.029-0.122,0.065-0.214,0.11
		c-0.092,0.058-0.151,0.11-0.18,0.162c-0.027,0.053-0.106,0.077-0.23,0.077h-0.052c-0.01-0.034-0.058-0.079-0.137-0.138
		c-0.079-0.056-0.118-0.097-0.118-0.119c0-0.021,0.008-0.059,0.023-0.111C132.68,41.61,132.691,41.578,132.691,41.567z
		 M131.649,23.011c0.01-0.034,0-0.051-0.035-0.051c-0.033,0-0.046,0.017-0.033,0.051C131.603,23.08,131.625,23.08,131.649,23.011z
		 M132.144,40.799c0.238,0,0.405,0.054,0.504,0.161c0.097,0.108,0.145,0.261,0.145,0.454c0,0.033-0.054,0.033-0.161,0
		c-0.107-0.034-0.196-0.053-0.265-0.053c-0.023,0-0.055-0.024-0.095-0.075c-0.04-0.052-0.077-0.108-0.111-0.171
		c-0.033-0.062-0.066-0.124-0.094-0.181c-0.029-0.056-0.042-0.097-0.042-0.119L132.144,40.799z M132.622,30.496
		c0,0.057,0.029,0.113,0.085,0.17c0.057,0.057,0.114,0.085,0.171,0.085v-0.444c-0.068,0-0.127,0.011-0.18,0.034
		C132.648,30.364,132.622,30.416,132.622,30.496z M132.725,35.69v-0.153l-0.086,0.068L132.725,35.69z M132.878,31.179
		c0,0.091,0.012,0.182,0.034,0.272c0.023,0.092,0.063,0.177,0.12,0.257c0.079-0.068,0.173-0.114,0.281-0.137
		c0.106-0.022,0.162-0.097,0.162-0.222c0-0.022,0.004-0.069,0.009-0.137c0.007-0.068-0.021-0.104-0.076-0.104
		c0.01,0.023,0.004,0.061-0.019,0.111c-0.021,0.051-0.039,0.088-0.051,0.111c-0.022,0.022-0.062,0.018-0.121-0.018
		c-0.021-0.011-0.044-0.027-0.066-0.051V30.99c-0.035,0.012-0.063,0.018-0.085,0.018c-0.023,0-0.044,0.003-0.062,0.009
		c-0.017,0.006-0.036,0.008-0.059,0.008C132.9,31.037,132.878,31.087,132.878,31.179z M133.032,28.958
		c0.011-0.022-0.004-0.034-0.044-0.034c-0.038,0-0.053,0.012-0.042,0.034c0,0.022,0.014,0.033,0.042,0.033
		C133.018,28.991,133.032,28.981,133.032,28.958z M133.032,31.776c-0.046,0-0.068,0.029-0.068,0.086
		c0,0.058,0.022,0.086,0.068,0.086c0.034,0,0.052-0.028,0.052-0.086C133.084,31.805,133.067,31.776,133.032,31.776z M133.032,32.255
		h0.069l-0.069-0.085V32.255z M133.187,35.929c-0.07,0.034-0.104,0.085-0.104,0.154c0.058,0,0.112-0.035,0.171-0.104L133.187,35.929
		z M133.442,22.447c-0.059,0-0.108,0.019-0.155,0.052c-0.045,0.033-0.078,0.073-0.101,0.12l-0.019,0.033
		c0,0.012,0.002,0.021,0.008,0.025c0.007,0.005,0.011,0.014,0.011,0.026c0.056-0.035,0.112-0.069,0.17-0.104
		C133.412,22.566,133.442,22.516,133.442,22.447z M133.476,32.323c-0.059,0.023-0.112,0.053-0.172,0.086
		c-0.056,0.034-0.086,0.086-0.086,0.154c0.068,0,0.129-0.009,0.182-0.025c0.053-0.018,0.076-0.065,0.076-0.146V32.323z
		 M133.34,35.536l0.068-0.103l-0.068-0.052V35.536z M133.391,22.669c0,0.126,0.062,0.188,0.188,0.188
		C133.579,22.732,133.517,22.669,133.391,22.669z M133.408,31.776h0.067v-0.067h-0.067V31.776z M133.63,29.35
		c-0.066,0.035-0.11,0.092-0.129,0.171c-0.017,0.08-0.024,0.147-0.024,0.205c0.08,0,0.14-0.035,0.18-0.103
		c0.04-0.068,0.06-0.137,0.06-0.205C133.715,29.374,133.688,29.35,133.63,29.35z M133.784,30.769c-0.059,0-0.111,0.011-0.162,0.035
		c-0.052,0.022-0.078,0.08-0.078,0.17C133.704,30.974,133.784,30.905,133.784,30.769z M133.563,30.017h0.151V29.88h-0.151V30.017z
		 M133.63,27.043l0.085-0.068h-0.085V27.043z M133.715,27.282c-0.045,0-0.067,0.023-0.067,0.069s0.022,0.069,0.067,0.069
		c0.035,0,0.054-0.023,0.054-0.069S133.75,27.282,133.715,27.282z M133.715,30.563c-0.021-0.01-0.034-0.002-0.034,0.026
		c0,0.027,0.014,0.043,0.034,0.043c0.023-0.012,0.035-0.026,0.035-0.043C133.75,30.572,133.738,30.563,133.715,30.563z
		 M133.784,26.514c-0.034,0-0.052,0.029-0.052,0.086s0.018,0.085,0.052,0.085c0.044,0,0.067-0.028,0.067-0.085
		S133.828,26.514,133.784,26.514z M133.784,27.727c-0.034,0-0.052,0.028-0.052,0.085c0,0.058,0.018,0.085,0.052,0.085
		c0.044,0,0.067-0.027,0.067-0.085C133.851,27.755,133.828,27.727,133.784,27.727z M133.784,30.102
		c-0.034,0-0.052,0.026-0.052,0.077s0.018,0.077,0.052,0.077c0.044,0,0.067-0.026,0.067-0.077
		C133.852,30.128,133.828,30.102,133.784,30.102z M133.869,25.282c-0.057,0.023-0.089,0.061-0.093,0.112
		c-0.007,0.051-0.009,0.094-0.009,0.127h0.204c0-0.034-0.007-0.077-0.019-0.127C133.942,25.343,133.914,25.307,133.869,25.282z
		 M133.869,28.428c-0.057,0.023-0.089,0.054-0.093,0.094c-0.007,0.041-0.009,0.084-0.009,0.128h0.102V28.428L133.869,28.428z
		 M133.972,32.306c-0.046,0-0.092,0.009-0.139,0.026c-0.045,0.018-0.065,0.048-0.065,0.094v0.035c0,0.011,0.005,0.017,0.017,0.017
		C133.909,32.478,133.972,32.42,133.972,32.306z M133.834,24.515c0,0.068,0.016,0.131,0.044,0.188s0.076,0.086,0.145,0.086v-0.274
		H133.834z M134.022,24.907c-0.044,0.012-0.088,0.028-0.126,0.052c-0.041,0.022-0.062,0.062-0.062,0.12h0.188V24.907L134.022,24.907
		z M133.869,35.536c0.012-0.012,0.026-0.025,0.042-0.042c0.018-0.018,0.025-0.037,0.025-0.061v-0.017v-0.035
		c0-0.011-0.009-0.036-0.025-0.076c-0.016-0.04-0.03-0.065-0.042-0.077V35.536z M134.092,32.016
		c-0.057,0.034-0.086,0.085-0.086,0.154h0.086V32.016z M134.092,31.179c0-0.023-0.015-0.035-0.044-0.035
		c-0.027,0-0.036,0.012-0.025,0.035C134.045,31.225,134.067,31.225,134.092,31.179z M134.022,23.849h0.154
		c0-0.011-0.014-0.026-0.042-0.043c-0.029-0.017-0.043-0.031-0.043-0.043h-0.035h-0.034V23.849z M134.022,29.111
		c0.045-0.045,0.069-0.096,0.069-0.152h-0.069V29.111z M134.092,24.293c0.066-0.034,0.103-0.079,0.103-0.137h-0.103V24.293z
		 M134.092,36.066h0.103c0-0.057-0.005-0.11-0.018-0.162c-0.012-0.052-0.04-0.104-0.085-0.163V36.066z M134.177,37.364
		c-0.047,0-0.067,0.023-0.067,0.07c0,0.045,0.021,0.068,0.067,0.068c0.034,0,0.053-0.022,0.053-0.068
		C134.229,37.387,134.211,37.364,134.177,37.364z M134.245,27.591c-0.034,0-0.052,0.022-0.052,0.067
		c0,0.046,0.018,0.068,0.052,0.068s0.052-0.022,0.052-0.068C134.297,27.614,134.279,27.591,134.245,27.591z M134.315,37.279
		l0.085-0.086l-0.085-0.051l-0.069,0.051L134.315,37.279z M134.315,37.74c0.045,0.022,0.072,0.055,0.085,0.094
		c0.011,0.04,0.022,0.078,0.033,0.111c0.012,0.034,0.025,0.065,0.043,0.095c0.019,0.027,0.056,0.042,0.11,0.042
		c0-0.014,0-0.04,0-0.085s-0.004-0.093-0.009-0.138c-0.007-0.047-0.018-0.09-0.035-0.128c-0.017-0.04-0.047-0.06-0.093-0.06h-0.051
		C134.353,37.695,134.324,37.718,134.315,37.74z M134.315,38.954h0.085v-0.068h-0.085V38.954z M134.552,39.637
		c-0.081,0-0.13,0.029-0.152,0.086c0.011,0.012,0.022,0.018,0.033,0.018h0.053c0.077,0,0.123-0.028,0.136-0.086h-0.034
		C134.576,39.654,134.563,39.648,134.552,39.637z M134.485,38.731h0.136v-0.067h-0.136V38.731z M134.552,24.72
		c0.204,0,0.382-0.086,0.528-0.256h-0.528V24.72z M134.552,25.763c0.068,0,0.118-0.035,0.154-0.103h-0.154V25.763z M134.621,36.271
		v-0.034h-0.068L134.621,36.271z M134.621,26.514c-0.034,0-0.052,0.029-0.052,0.086s0.018,0.085,0.052,0.085
		c0.045,0,0.067-0.028,0.067-0.085S134.666,26.514,134.621,26.514z M134.621,25.523h0.086V25.37h-0.086V25.523z M134.792,25.079
		c-0.08,0.011-0.121,0.062-0.121,0.152c0.081,0,0.145-0.034,0.188-0.103L134.792,25.079z M135.014,24.907
		c-0.034-0.012-0.051,0-0.051,0.034c0,0.035,0.017,0.046,0.051,0.035c0.021,0,0.035-0.009,0.035-0.025
		C135.05,24.934,135.036,24.919,135.014,24.907z"/>
</g>
<g>
	<g>
		<path fill="#FFFFFF" d="M40.624,22.602c-0.571,0.219-1.156,0.381-1.755,0.485c-0.6,0.104-1.219,0.157-1.857,0.157
			c-1.996,0-3.534-0.542-4.612-1.624c-1.079-1.083-1.617-2.664-1.617-4.745c0-0.998,0.155-1.904,0.465-2.718s0.747-1.51,1.309-2.089
			s1.233-1.025,2.014-1.34c0.781-0.315,1.641-0.473,2.58-0.473c0.654,0,1.267,0.046,1.838,0.139c0.57,0.092,1.115,0.244,1.636,0.454
			v2.089c-0.545-0.285-1.101-0.493-1.667-0.623c-0.566-0.13-1.152-0.195-1.756-0.195c-0.562,0-1.092,0.106-1.592,0.32
			c-0.499,0.214-0.938,0.523-1.315,0.925c-0.377,0.403-0.675,0.894-0.894,1.473c-0.218,0.579-0.327,1.233-0.327,1.963
			c0,1.527,0.371,2.67,1.114,3.429c0.742,0.76,1.771,1.14,3.089,1.14c0.596,0,1.173-0.068,1.73-0.202
			c0.559-0.135,1.097-0.335,1.618-0.604V22.602z"/>
		<path fill="#FFFFFF" d="M55.16,22.892c-0.495,0.126-1.007,0.216-1.536,0.271c-0.528,0.055-1.065,0.082-1.611,0.082
			c-1.585,0-2.769-0.359-3.549-1.076c-0.781-0.717-1.171-1.818-1.171-3.304V12.27h-3.537v-1.838h3.537V6.958l2.19-0.566v4.04h5.676
			v1.838h-5.676v6.418c0,0.906,0.241,1.583,0.723,2.033s1.193,0.673,2.133,0.673c0.403,0,0.843-0.031,1.321-0.095
			c0.479-0.062,0.979-0.162,1.499-0.296V22.892z"/>
		<path fill="#FFFFFF" d="M69.306,23.068h-1.963l-0.075-2.039c-0.378,0.437-0.737,0.799-1.077,1.088
			c-0.339,0.29-0.677,0.522-1.013,0.698c-0.335,0.177-0.673,0.301-1.013,0.371c-0.34,0.072-0.699,0.107-1.076,0.107
			c-1.301,0-2.282-0.381-2.945-1.146c-0.663-0.763-0.995-1.917-0.995-3.46v-8.256h2.19v8.08c0,1.938,0.73,2.908,2.19,2.908
			c0.269,0,0.531-0.04,0.787-0.12c0.255-0.08,0.524-0.218,0.806-0.415c0.281-0.197,0.583-0.464,0.906-0.799
			c0.323-0.335,0.686-0.759,1.089-1.271v-8.382h2.189V23.068z"/>
		<path fill="#FFFFFF" d="M83.994,16.083c0,0.311-0.005,0.571-0.014,0.78c-0.007,0.21-0.021,0.407-0.036,0.592H75.07
			c0,1.292,0.361,2.284,1.083,2.977c0.722,0.692,1.763,1.038,3.121,1.038c0.369,0,0.738-0.014,1.107-0.044
			c0.369-0.029,0.726-0.069,1.07-0.119c0.344-0.051,0.673-0.107,0.986-0.17c0.316-0.063,0.606-0.133,0.876-0.208v1.8
			c-0.597,0.167-1.269,0.304-2.02,0.408c-0.751,0.105-1.529,0.157-2.335,0.157c-1.082,0-2.014-0.146-2.794-0.44
			c-0.78-0.293-1.42-0.719-1.92-1.277c-0.499-0.558-0.867-1.241-1.107-2.051c-0.238-0.81-0.358-1.726-0.358-2.75
			c0-0.89,0.128-1.731,0.384-2.524c0.256-0.792,0.63-1.489,1.12-2.089c0.491-0.6,1.093-1.076,1.807-1.429
			c0.713-0.353,1.522-0.528,2.429-0.528c0.881,0,1.661,0.139,2.341,0.415c0.68,0.277,1.252,0.669,1.717,1.177
			c0.467,0.508,0.82,1.125,1.059,1.85C83.874,14.374,83.994,15.185,83.994,16.083z M81.716,15.768
			c0.025-0.562-0.029-1.076-0.163-1.542c-0.135-0.465-0.342-0.866-0.623-1.202c-0.281-0.335-0.632-0.598-1.051-0.787
			c-0.42-0.188-0.906-0.283-1.46-0.283c-0.479,0-0.915,0.092-1.309,0.276c-0.396,0.185-0.734,0.445-1.02,0.78
			c-0.286,0.335-0.517,0.739-0.692,1.208c-0.177,0.47-0.286,0.986-0.328,1.548H81.716z"/>
	</g>
	<path fill="#FFFFFF" d="M12.598,25.887c-0.198,0-0.398-0.033-0.594-0.104c-4.725-1.697-7.898-6.21-7.898-11.23
		c0-5.068,3.215-9.595,8.001-11.265c0.917-0.32,1.918,0.164,2.238,1.08c0.319,0.916-0.164,1.917-1.08,2.237
		c-3.377,1.179-5.645,4.373-5.645,7.948c0,3.542,2.239,6.727,5.572,7.924c0.913,0.328,1.387,1.334,1.059,2.247
		C13.993,25.442,13.318,25.887,12.598,25.887z"/>
	<path fill="#FFFFFF" d="M19.388,25.917c-0.728,0-1.407-0.454-1.659-1.178c-0.32-0.916,0.164-1.918,1.08-2.238
		c3.377-1.177,5.645-4.372,5.645-7.948c0-3.611-2.298-6.814-5.718-7.973c-0.919-0.311-1.412-1.308-1.101-2.227
		c0.311-0.919,1.309-1.412,2.228-1.101c4.847,1.641,8.104,6.182,8.104,11.3c0,5.069-3.215,9.597-8.001,11.266
		C19.775,25.886,19.579,25.917,19.388,25.917z"/>
</g>
</svg>
